<svg width="297" height="179" viewBox="0 0 297 179" fill="none" xmlns="http://www.w3.org/2000/svg">
<path d="M3.45055 78.72C3.45055 78.72 3.54055 82.24 3.59055 83.68C3.61055 84.33 3.57055 91.32 3.57055 91.32C3.57055 91.32 0.200551 91.22 0.250551 91.77C0.300551 92.32 0.180551 104.41 0.560551 104.41C0.940551 104.41 3.74055 103.51 3.81055 104.2C3.88055 104.89 3.64055 111.1 3.64055 111.1C3.64055 111.1 2.90055 111.43 2.73055 111.05C2.56055 110.67 2.63055 104.87 2.63055 104.87C2.63055 104.87 5.88055 104.87 6.07055 104.44C6.26055 104.01 6.02055 91.97 6.02055 91.97C6.02055 91.97 2.77055 92.51 2.68055 92C2.59055 91.49 2.62055 84.21 2.62055 84.21C2.62055 84.21 3.73055 84.16 4.29055 84.5C4.68055 84.74 4.32055 87.01 4.56055 87.04C5.40055 87.13 10.3206 87.4 10.7406 86.8C11.1606 86.19 10.3206 72.72 11.0706 72.81C11.8206 72.9 15.1306 73.14 15.4506 72.44C15.7806 71.74 15.4706 62.95 15.4706 62.95C15.4706 62.95 14.2506 62.55 14.2706 62.95C14.2906 63.36 14.2906 71.81 14.2906 71.81C14.2906 71.81 18.1606 71.88 18.2106 72.91C18.2606 73.94 18.3606 88.82 18.3606 88.82C18.3606 88.82 13.6306 88.6 13.6606 89.22C13.7106 90.17 14.0206 98.13 14.0206 98.13C14.0206 98.13 15.1006 98.48 15.2606 98.1C15.4206 97.72 15.1606 89.7 15.1606 89.7C15.1606 89.7 11.2506 90.35 11.0906 89.48C10.9306 88.6 11.1406 87.79 11.1406 87.79C11.1406 87.79 22.0706 88.18 22.6306 87.18C23.1906 86.19 22.5706 60.45 22.5706 60.45C22.5706 60.45 26.2906 60.86 26.5406 59.82C26.7906 58.78 26.2406 45 26.2406 45L25.0806 45.04L25.5306 59.41C25.5306 59.41 28.8406 59.55 28.9006 60.41C28.9606 61.27 29.0606 87.56 29.0606 87.56C29.0606 87.56 23.0906 87.35 23.1206 87.83C23.1506 88.31 23.1806 89.04 23.1806 89.04C23.1806 89.04 26.5506 88.45 26.6806 89.31C26.8106 90.17 26.9906 100.76 26.9906 100.76C26.9906 100.76 26.1706 100.93 25.9806 100.61C25.7906 100.29 25.7206 89.7 25.7206 89.7C25.7206 89.7 29.4506 89.39 29.8306 89.58C29.8306 89.58 29.5506 85.04 30.3506 84.96C31.1506 84.88 37.4406 85.29 37.7606 84.33C38.0806 83.37 37.7006 77.9 37.7006 77.9L36.7106 77.87C36.7106 77.87 36.6506 83.9 37.0406 83.9C37.4306 83.9 39.7606 84.49 39.9806 84.95C40.2006 85.42 40.3206 97.07 40.3206 97.07C40.3206 97.07 36.7406 96.29 36.7806 96.8C36.8106 97.31 36.7706 105.03 37.1506 105.13C37.5306 105.23 38.0105 105.41 38.1105 104.93C38.2105 104.45 38.0706 97.48 38.0706 97.48C38.0706 97.48 34.4106 97.95 34.3206 97.09C34.2206 96.23 34.1306 85.99 34.1306 85.99C34.1306 85.99 38.9606 85.58 39.1406 86.14L39.2206 89.55C39.2206 89.55 48.4606 90.05 48.7806 89.41C49.1006 88.78 48.9206 79 48.9206 79L47.7406 78.91L47.8306 88.55C47.8306 88.55 51.9906 88.48 52.1706 89.39C52.3506 90.3 52.1306 118.31 52.1306 118.31C52.1306 118.31 48.1806 117.58 48.0606 118.24C47.9406 118.9 48.2505 130.22 48.2505 130.22C48.2505 130.22 49.2206 130.57 49.3306 130.1C49.4506 129.64 49.1805 118.86 49.1805 118.86C49.1805 118.86 45.5505 119.59 45.3605 118.44C45.1705 117.28 45.1706 90.93 45.1706 90.93C45.1706 90.93 57.4606 91.52 57.6506 90.89L57.8405 109.51C57.8405 109.51 61.9405 109.97 62.3305 109.53C62.7205 109.1 62.6205 124.39 62.6205 124.39C62.6205 124.39 61.5205 124.81 61.5205 124.27C61.5205 123.73 61.1306 109.42 61.4006 108.72C61.6706 108.02 64.0005 108.86 65.0905 109.24C65.0905 109.24 65.1905 84.79 64.8105 84.6C64.4205 84.41 61.0906 84.57 61.0606 84.17C61.0306 83.77 60.7005 69.5 61.0905 69.11C61.4905 68.71 62.0606 69.17 62.0606 69.17L62.2705 83.48C62.2705 83.48 58.0505 83.69 58.1605 84.43C58.2705 85.17 58.2006 90.25 58.2006 90.25C58.2006 90.25 63.8806 90.57 63.9206 90.09C63.9606 89.61 64.0105 94.03 64.0105 94.03C64.0105 94.03 70.4305 93.52 70.7805 94.27L70.9205 112.68C70.9205 112.68 74.6405 113.12 75.1305 112.79C75.6205 112.46 75.3505 124.74 75.3505 124.74C75.3505 124.74 74.1905 125.11 74.1605 124.57C74.1305 124.04 74.0505 112.45 74.3305 112.02C74.6105 111.6 77.3905 112.26 77.3905 112.26L77.2906 91.11C77.2906 91.11 73.8305 91.26 73.8305 90.87C73.8305 90.48 73.7906 83.42 73.7906 83.42C73.7906 83.42 74.9505 83.2 74.9805 83.53C75.0105 83.87 75.3205 90.05 75.0905 90.19C74.8605 90.33 70.8805 89.92 70.7405 90.82C70.6005 91.72 70.8005 93.15 70.8005 93.15L86.8305 92.79L86.7705 82.08C86.7705 82.08 82.6205 82.55 82.6205 81.89C82.6205 81.23 82.3905 56.63 82.7005 55.97C83.0105 55.31 86.0105 55.9 86.3205 55.16C86.6305 54.41 86.2805 44.06 86.2805 44.06L85.1805 44.1C85.1805 44.1 85.1705 56.06 85.4205 56.28C85.6705 56.5 89.1005 55.75 89.2505 56.42C89.3905 57.1 89.4805 81.01 89.4805 81.01C89.4805 81.01 85.5005 80.79 85.5205 81.19C85.5405 81.59 85.6205 99.65 85.6205 99.65C85.6205 99.65 86.8205 100.18 86.9205 99.47C87.0305 98.77 86.9205 93.81 86.9205 93.81C86.9205 93.81 98.8605 93.79 99.6205 93.44L99.5905 76.85C99.5905 76.85 95.5706 77.25 95.5406 76.85C95.5006 76.46 95.3705 46.82 95.3705 46.82C95.3705 46.82 99.7405 47.23 99.9605 46.63C100.181 46.03 99.8305 38.58 99.8305 38.58L98.6005 38.56L98.7105 45.94C98.7105 45.94 102.481 45.82 102.691 46.84C102.901 47.86 102.731 76.13 102.731 76.13C102.731 76.13 98.4805 75.76 98.4805 76.1C98.4805 76.44 98.5605 96.94 98.5605 96.94C98.5605 96.94 99.4005 97.43 99.6105 96.94C99.8205 96.45 99.7206 94.59 99.7206 94.59L109.141 94.57C109.141 94.57 108.781 83.57 109.051 82.14C109.321 80.71 112.171 82.14 112.721 81.04C113.271 79.94 112.611 66.29 112.611 66.29L111.291 66.18L111.621 80.63C111.621 80.63 115.291 80.88 115.321 81.42C115.351 81.95 115.651 98.54 115.651 98.54C115.651 98.54 111.521 98.74 111.571 99.05C111.631 99.36 111.701 106.59 111.701 106.59C111.701 106.59 112.891 106.99 112.971 106.41C113.061 105.84 112.841 97.75 112.841 97.75C112.841 97.75 109.261 98.13 109.131 97.52C109.001 96.91 109.011 95.53 109.011 95.53C109.011 95.53 114.251 95.85 114.371 95.53C114.481 95.21 114.371 87.28 114.371 87.28C114.371 87.28 124.641 87.48 124.961 86.92C125.281 86.36 125.081 79.48 125.081 79.48L124.001 79.4L123.881 86C123.881 86 127.321 85.84 127.481 86.84C127.641 87.84 127.561 116.64 127.561 116.64C127.561 116.64 123.601 116.53 123.761 117.17C123.921 117.81 123.921 129.78 123.921 129.78C123.921 129.78 125.011 130.02 125.211 129.57C125.411 129.13 125.091 115.91 125.091 115.91C125.091 115.91 121.201 116.37 121.051 115.77C120.901 115.17 121.031 88.44 121.031 88.44L135.831 88.35L135.891 92.98H137.201L137.081 86.21C137.081 86.21 133.511 86.41 133.451 86.01C133.381 85.62 133.411 71.39 133.411 71.39C133.411 71.39 136.801 71.54 136.891 71.01C136.971 70.48 136.891 59.99 136.891 59.99L135.521 59.92L135.751 72.31C135.751 72.31 138.861 72.1 138.961 72.56C139.061 73.02 138.961 85.25 138.961 85.25C138.961 85.25 135.911 85.12 135.911 85.35C135.911 85.58 135.831 87.38 135.831 87.38H147.721C147.721 87.38 147.501 74.16 147.761 73.75C148.021 73.34 143.921 73.94 143.961 73.49C144.001 73.04 143.901 49.82 143.901 49.82C143.901 49.82 147.741 50.04 147.681 49.47C147.621 48.9 147.561 40.89 147.561 40.89L146.161 40.87L146.281 48.89C146.281 48.89 149.641 48.89 149.881 49.46C150.121 50.03 150.091 74.51 150.091 74.51L146.411 74.56L146.361 86.46L155.441 86.5V35.48C155.441 35.48 159.211 36.07 159.391 35.34C159.571 34.62 159.301 20.88 159.301 20.88L157.991 20.74L157.941 34.81C157.941 34.81 162.061 35.22 161.971 35.72C161.881 36.22 162.381 54.25 161.971 54.98C161.561 55.72 158.291 55.3 158.291 55.3L158.271 63.34L159.831 63.29L159.691 54.43C159.691 54.43 156.921 54.43 156.711 54.27C156.501 54.11 156.771 44.93 156.771 44.93L167.271 44.8C167.271 44.8 166.751 22.8 167.241 22.55C167.721 22.31 170.861 22.35 170.861 22.35L170.901 12.56L169.651 12.52C169.651 12.52 169.331 23.06 169.731 23.26C170.131 23.46 173.111 22.7 173.511 23.82C173.911 24.95 174.071 44.38 173.671 44.62C173.271 44.86 169.931 44.42 169.811 44.98C169.691 45.54 169.861 62.19 169.861 62.19H171.421L171.151 43.7L168.411 43.68L168.301 27.5C168.301 27.5 186.041 27.9 186.441 27.5C186.841 27.1 186.391 18.19 186.391 18.19C186.391 18.19 182.981 18.43 182.741 18.19C182.501 17.95 182.781 0.25 182.781 0.25H184.071L183.831 19.15C183.831 19.15 179.881 18.88 179.881 19.45C179.881 20.02 179.591 26.49 179.931 26.73C180.271 26.97 184.011 26.59 184.081 27C184.151 27.41 184.101 35.58 184.101 35.58C184.101 35.58 182.911 36 182.791 35.61C182.681 35.23 182.681 28.77 182.681 28.77H191.641L191.701 24.47C191.701 24.47 195.261 24.75 195.261 24V18.17L194.141 18.12L194.091 23.28C194.091 23.28 197.611 23.19 197.611 23.7V51.89L194.001 51.93L194.061 60.24C194.061 60.24 195.331 60.8 195.411 60.2C195.481 59.6 195.451 52.78 195.451 52.78C195.451 52.78 191.931 53.45 191.931 52.44C191.931 51.43 191.891 29.64 191.891 29.64C191.891 29.64 196.271 29.44 196.361 29.8C196.461 30.16 196.361 53.77 196.361 53.77C196.361 53.77 196.051 55.36 196.701 57.05C197.361 58.74 198.531 60.94 199.281 60.47C200.031 60 204.111 58.69 205.001 59.3C205.891 59.91 203.711 52.61 202.561 52.58C201.411 52.56 202.081 53.83 202.081 53.83C202.081 53.83 199.061 45.96 198.241 46.44C197.421 46.92 199.991 52.29 199.461 52.63C198.931 52.97 195.201 56.9 196.231 59.15C197.261 61.4 199.421 62.48 199.421 62.48C199.421 62.48 204.591 59.14 205.341 60.34C206.091 61.54 207.741 62.93 205.491 63.11C203.241 63.3 199.751 63.71 201.221 66.48C202.681 69.25 208.161 77.2 210.581 77.28C213.001 77.35 221.341 72.37 221.711 73.55C222.081 74.72 225.751 67.69 224.101 65.4C222.451 63.11 222.361 72.17 223.181 76.29C224.001 80.41 223.641 96.15 220.891 101.37C218.141 106.59 234.361 106.24 237.381 105.96C240.401 105.69 240.951 99.19 240.771 95.71C240.591 92.23 240.861 103.22 242.051 104.95C243.241 106.69 255.411 107.24 256.691 106.51C257.971 105.78 251.661 89.21 251.931 87.56C252.211 85.91 255.961 67.42 255.681 64.77C255.401 62.12 252.661 72.83 254.031 77.49C255.401 82.16 256.321 84.81 256.321 84.81C256.321 84.81 260.991 89.84 259.431 86.46C257.871 83.07 255.491 84.72 255.591 86.92C255.681 89.12 254.221 93.42 255.131 95.07C256.041 96.72 256.781 103.31 258.421 102.39C260.071 101.47 262.631 90.49 263.271 83.63C263.911 76.77 261.811 56.17 260.071 55.25C258.331 54.33 246.641 47.16 245.931 46.63C245.231 46.1 235.801 46.98 234.271 48.15C232.751 49.32 233.331 49.67 233.331 49.67C233.331 49.67 245.631 47.27 246.511 48.03C247.391 48.79 243.581 45.57 244.111 43.75C244.641 41.93 234.271 46.09 234.091 45.33C233.911 44.57 232.751 44.56 230.801 44.79C228.851 45.01 228.891 39.84 229.601 37.22C230.311 34.6 231.921 29.85 232.601 30.3C233.271 30.75 234.661 34.35 234.291 35.4C233.911 36.45 236.951 34.46 236.011 36.6C235.071 38.74 233.991 40.39 235.111 40.27C236.231 40.16 243.251 41.28 244.971 38.43C246.691 35.58 249.131 30.63 245.871 27.59C242.611 24.55 239.871 25.04 235.151 25.23C230.431 25.42 231.361 26.17 231.211 27.48C231.061 28.79 234.361 29.13 234.701 30.82C235.041 32.51 233.991 34.01 237.141 34.01C240.291 34.01 238.791 35.55 236.881 37.65C234.971 39.75 237.261 39.11 240.441 39.07C243.631 39.03 244.151 40.53 243.851 42.29C243.551 44.05 235.641 45.3 234.671 46.43C233.701 47.55 233.131 49.58 230.061 50.59C226.991 51.6 223.551 52.46 223.121 53.83C222.691 55.2 211.861 66.6 211.021 67.96C210.181 69.32 209.661 72.97 210.741 71.76C211.821 70.54 211.911 68.99 209.621 65.9C207.321 62.81 208.501 63.7 206.761 64.03C205.031 64.36 202.031 69.51 204.601 68.72C207.181 67.92 206.331 71.44 207.511 72.8C208.681 74.16 211.731 76.32 212.901 73.6C214.071 70.88 214.961 61.7 216.091 65.87C217.211 70.04 215.061 69.15 221.671 61.93C228.281 54.71 248.721 48.03 237.831 57.27C226.941 66.51 223.641 76.95 229.231 75.3C234.811 73.65 251.021 74.84 238.111 80.98C225.201 87.11 218.611 99.2 228.131 96.36C237.651 93.52 225.661 101.21 224.561 104.69C223.461 108.17 224.381 128.12 224.471 130.05C224.561 131.97 221.831 169.46 223.301 170.24C224.761 171.02 230.631 171.45 231.381 170.2C232.131 168.95 232.131 175.65 231.731 177.05C231.331 178.45 222.831 179.65 219.881 177.6C216.931 175.55 214.831 172.25 216.931 171.25C219.031 170.25 221.731 171 223.731 169.5C225.731 168 230.981 171.1 232.581 168.6C234.181 166.1 235.001 136.07 235.751 132.19C236.501 128.32 239.871 112.07 240.121 110.69C240.371 109.32 244.121 127.94 245.121 130.81C246.121 133.68 249.371 168.68 250.741 169.3C252.111 169.92 258.301 172.62 259.341 169.9C260.381 167.18 258.381 141.87 257.101 136.19C255.821 130.51 255.741 108.4 255.741 108.4C255.741 108.4 248.381 105.52 250.461 110.72C252.541 115.92 256.141 127.16 253.821 126.36C251.501 125.56 246.301 116.68 248.061 121.8C249.821 126.92 256.301 134.44 256.221 139.24C256.141 144.04 250.471 155.19 253.591 154.29C256.701 153.39 257.031 152.49 257.521 160.27C258.011 168.05 261.161 175.99 258.551 176.96C255.941 177.93 249.601 176.89 247.741 175.21C245.881 173.53 244.591 171.99 247.101 170.99C249.601 169.99 251.751 169.84 252.001 168.77C252.251 167.7 250.181 170.74 253.681 171.85C257.191 172.96 258.301 171.85 258.221 173.21C258.151 174.57 258.511 177.47 260.981 177.47H295.971" stroke="black" stroke-width="0.5" stroke-linecap="round" stroke-linejoin="round"/>
</svg>
