<svg width="138" height="35" viewBox="0 0 138 35" fill="none" xmlns="http://www.w3.org/2000/svg">
<g opacity="0.8">
<mask id="mask0_3171_6200" style="mask-type:luminance" maskUnits="userSpaceOnUse" x="0" y="0" width="27" height="27">
<path d="M23.95 0H2.94C1.31628 0 0 1.31629 0 2.94V23.95C0 25.5737 1.31628 26.89 2.94 26.89H23.95C25.5737 26.89 26.89 25.5737 26.89 23.95V2.94C26.89 1.31629 25.5737 0 23.95 0Z" fill="white"/>
</mask>
<g mask="url(#mask0_3171_6200)">
<path d="M2.93961 -0.648438C0.95961 -0.648438 -0.650391 0.961589 -0.650391 2.94159H0.649609C0.649609 1.67159 1.67961 0.651611 2.93961 0.651611V-0.648438ZM23.9496 0.651611C25.2196 0.651611 26.2396 1.68159 26.2396 2.94159H27.5396C27.5396 0.961589 25.9296 -0.648438 23.9496 -0.648438V0.651611ZM26.2396 23.9516C26.2396 25.2216 25.2096 26.2416 23.9496 26.2416V27.5416C25.9296 27.5416 27.5396 25.9316 27.5396 23.9516H26.2396ZM2.93961 26.2416C1.66961 26.2416 0.649609 25.2116 0.649609 23.9516H-0.650391C-0.650391 25.9316 0.95961 27.5416 2.93961 27.5416V26.2416ZM0.649609 23.9516V2.94159H-0.650391V23.9516H0.649609ZM23.9496 26.2416H2.93961V27.5416H23.9496V26.2416ZM26.2396 2.94159V23.9516H27.5396V2.94159H26.2396ZM2.93961 0.651611H23.9496V-0.648438H2.93961V0.651611Z" fill="url(#paint0_linear_3171_6200)"/>
</g>
<path d="M23.2492 1.44141H3.65922C2.43867 1.44141 1.44922 2.43088 1.44922 3.65143V23.2414C1.44922 24.4619 2.43867 25.4514 3.65922 25.4514H23.2492C24.4698 25.4514 25.4592 24.4619 25.4592 23.2414V3.65143C25.4592 2.43088 24.4698 1.44141 23.2492 1.44141Z" fill="url(#paint1_linear_3171_6200)"/>
<path d="M9.56083 6.13941C9.77083 6.22941 9.98083 6.24939 10.2108 6.24939C10.2408 6.24939 10.2708 6.24939 10.3008 6.24939C10.3808 6.24939 10.4608 6.24939 10.5308 6.24939C10.6108 6.24939 10.6808 6.24939 10.7608 6.24939C10.9208 6.24939 11.0708 6.24939 11.2308 6.24939C11.3808 6.24939 11.5408 6.24939 11.6908 6.24939H11.7208C11.7208 6.24939 11.8208 6.24939 11.8708 6.24939C12.2208 6.24939 12.5608 6.24939 12.9108 6.24939H12.9708C12.9708 6.24939 12.9908 6.24939 13.0008 6.24939H13.1608C13.1608 6.24939 13.1808 6.24939 13.1908 6.24939C13.4308 6.24939 13.6708 6.24939 13.9108 6.24939H13.9408C14.1808 6.24939 14.4108 6.24939 14.6508 6.24939H14.6808C14.7708 6.24939 14.8608 6.24939 14.9508 6.24939C15.1808 6.24939 15.4108 6.24939 15.6408 6.24939H16.0808C16.1608 6.24939 16.2508 6.24939 16.3308 6.24939C16.7642 6.24939 17.0675 6.25942 17.2408 6.27942C17.2408 6.27942 17.2508 6.27942 17.2708 6.27942C17.4308 6.29942 17.5808 6.32939 17.7408 6.36939C17.7508 6.36939 17.7608 6.36939 17.7708 6.36939C18.0808 6.43939 18.3808 6.5594 18.6608 6.6994C18.6608 6.6994 18.6808 6.69941 18.6908 6.70941C18.7408 6.73941 18.7908 6.75937 18.8408 6.78937C18.8608 6.79937 18.8808 6.80941 18.9108 6.82941C19.1308 6.94941 19.3408 7.0994 19.5408 7.2594C19.5408 7.2594 19.5508 7.26937 19.5708 7.28937C19.5708 7.28937 19.6308 7.33939 19.6608 7.36939C19.6708 7.36939 19.6808 7.38942 19.7008 7.39942C19.8008 7.48942 19.9008 7.58938 19.9908 7.67938C19.9908 7.67938 19.9975 7.68607 20.0108 7.6994C20.1008 7.7894 20.1708 7.87937 20.2508 7.97937C20.2608 7.99937 20.2808 8.00942 20.2908 8.02942C20.4608 8.23942 20.6108 8.47937 20.7408 8.72937C20.7408 8.72937 20.7508 8.7494 20.7608 8.7594C21.3308 9.8294 21.4208 11.0694 21.1008 12.3394C20.9308 12.9594 20.6108 13.5394 20.1908 14.0194C20.1708 14.0494 20.1508 14.0694 20.1208 14.0994C20.0808 14.1494 20.0308 14.1994 19.9808 14.2594L19.9608 14.2794C19.9108 14.3394 19.8508 14.3894 19.7908 14.4394C19.7908 14.4394 19.7708 14.4494 19.7708 14.4594C19.1508 15.0094 18.4108 15.3594 17.6108 15.5094C17.6108 15.5094 17.6008 15.5094 17.5808 15.5094C17.5808 15.5094 17.5608 15.5094 17.5508 15.5094H17.5308C17.2708 15.5594 17.0108 15.5594 16.7408 15.5594C16.6908 15.5594 16.6408 15.5594 16.5908 15.5594C16.5008 15.5594 16.4108 15.5594 16.3208 15.5594C16.1908 15.5594 16.0608 15.5594 15.9308 15.5594C15.7208 15.5594 15.5108 15.5594 15.3008 15.5594H15.2608C15.1608 15.5594 15.0608 15.5594 14.9608 15.5594C14.8708 15.5594 14.7808 15.5594 14.6908 15.5594H14.6508C14.4408 15.5594 14.2308 15.5594 14.0308 15.5594C13.9008 15.5594 13.7708 15.5594 13.6508 15.5594C13.5608 15.5594 13.4708 15.5594 13.3908 15.5594C13.3408 15.5594 13.2908 15.5594 13.2408 15.5594C13.1908 15.5594 13.1508 15.5594 13.1008 15.5594C13.0808 15.5594 13.0508 15.5594 13.0308 15.5594C12.8808 15.5594 12.7608 15.5794 12.6408 15.6694C12.6408 15.6694 12.6308 15.6794 12.6208 15.6894C12.5308 15.7594 12.4908 15.8594 12.4708 15.9594C12.4708 15.9994 12.4708 16.0394 12.4708 16.0794C12.4708 16.0894 12.4708 16.0994 12.4708 16.1094C12.4708 16.1494 12.4708 16.1794 12.4708 16.2194C12.4708 16.2494 12.4708 16.2694 12.4708 16.2994C12.4708 16.3594 12.4708 16.4094 12.4708 16.4694C12.4708 16.5594 12.4708 16.6494 12.4708 16.7394C12.4708 16.9194 12.4708 17.0894 12.4708 17.2694C12.4708 17.4894 12.4708 17.7194 12.4708 17.9394C12.4708 18.0294 12.4708 18.1194 12.4708 18.2094C12.4708 18.2694 12.4708 18.3194 12.4708 18.3794C12.4708 18.4094 12.4708 18.4294 12.4708 18.4594C12.4708 18.6894 12.4708 18.9194 12.4008 19.1494C12.4008 19.1494 12.4008 19.1594 12.4008 19.1794C12.3408 19.4194 12.2308 19.6594 12.0708 19.8494C12.0708 19.8594 12.0508 19.8694 12.0408 19.8794C12.0108 19.9094 11.9808 19.9494 11.9508 19.9794C11.9408 19.9894 11.9308 19.9994 11.9208 20.0194C11.6508 20.3094 11.3108 20.4894 10.9308 20.5594C10.9208 20.5594 10.9008 20.5594 10.8908 20.5594C10.6708 20.5994 10.4508 20.5894 10.2308 20.5394C10.2108 20.5394 10.2008 20.5394 10.1808 20.5294C9.87083 20.4494 9.59083 20.2794 9.36083 20.0394C9.36083 20.0394 9.3475 20.0261 9.32083 19.9994C8.98083 19.6594 8.77083 19.1394 8.76083 18.6494C8.76083 18.5694 8.76083 18.4894 8.76083 18.4194C8.76083 18.3894 8.76083 18.3594 8.76083 18.3294C8.76083 18.2694 8.76083 18.1994 8.76083 18.1394C8.76083 18.0394 8.76083 17.9394 8.76083 17.8394C8.76083 17.6994 8.76083 17.5594 8.76083 17.4094C8.76083 17.4094 8.76083 17.3894 8.76083 17.3794C8.76083 17.2794 8.76083 17.1794 8.76083 17.0794C8.76083 17.0394 8.76083 17.0094 8.76083 16.9694V16.9394C8.76083 16.7894 8.76083 16.6394 8.76083 16.4894C8.76083 16.3894 8.76083 16.2894 8.76083 16.1894C8.76083 16.1294 8.76083 16.0594 8.76083 15.9994C8.76083 15.9694 8.76083 15.9394 8.76083 15.9094C8.76083 15.7194 8.76083 15.5494 8.69083 15.3794C8.69083 15.3594 8.68083 15.3494 8.67083 15.3294C8.65083 15.2794 8.63083 15.2294 8.61083 15.1794C8.55083 15.0194 8.58083 14.8194 8.64083 14.6594C8.73083 14.4694 8.88083 14.3294 9.07083 14.2494C9.26083 14.1994 9.46083 14.2094 9.63083 14.3094C9.81083 14.4294 9.94083 14.5994 9.99083 14.8194C9.99083 14.8594 9.99083 14.9094 9.99083 14.9494C9.99083 14.9594 9.99083 14.9694 9.99083 14.9894C9.99083 15.0894 9.97083 15.1794 9.93083 15.2794C9.91083 15.3294 9.90083 15.3894 9.88083 15.4494C9.88083 15.4594 9.88083 15.4694 9.88083 15.4794C9.88083 15.4894 9.88083 15.4994 9.88083 15.5094C9.88083 15.5094 9.88083 15.5294 9.88083 15.5394C9.86083 15.6194 9.86083 15.7094 9.86083 15.7894C9.86083 15.7994 9.86083 15.8194 9.86083 15.8294C9.86083 15.8694 9.86083 15.9094 9.86083 15.9594C9.86083 15.9894 9.86083 16.0194 9.86083 16.0494C9.86083 16.1494 9.86083 16.2494 9.86083 16.3494C9.86083 16.3794 9.86083 16.4194 9.86083 16.4494C9.86083 16.5894 9.86083 16.7394 9.86083 16.8794C9.86083 16.9194 9.86083 16.9494 9.86083 16.9894V17.0194C9.86083 17.1694 9.86083 17.3194 9.86083 17.4694C9.86083 17.6194 9.86083 17.7794 9.86083 17.9294C9.86083 18.0194 9.86083 18.0994 9.86083 18.1894C9.86083 18.2694 9.86083 18.3494 9.86083 18.4294C9.86083 18.4594 9.86083 18.4894 9.86083 18.5194C9.86083 18.7894 9.90083 19.0094 10.0808 19.2194C10.2508 19.3894 10.4608 19.4594 10.6908 19.4594C10.7608 19.4594 10.8208 19.4394 10.8808 19.4194C10.8808 19.4194 10.8908 19.416 10.9108 19.4094C11.0908 19.3394 11.2408 19.1894 11.3308 19.0094C11.3808 18.8994 11.4208 18.7694 11.4208 18.6394C11.4208 18.6294 11.4208 18.6094 11.4208 18.5994C11.4208 18.5994 11.4208 18.5827 11.4208 18.5494C11.4208 18.5494 11.4208 18.5194 11.4208 18.4994V18.3894C11.4208 18.3294 11.4208 18.2694 11.4208 18.2194C11.4208 18.1394 11.4208 18.0494 11.4208 17.9694C11.4208 17.8394 11.4208 17.7094 11.4208 17.5694C11.4208 17.5194 11.4208 17.4794 11.4208 17.4294V17.3994C11.4208 17.2694 11.4208 17.1394 11.4208 17.0094C11.4208 16.9994 11.4208 16.9894 11.4208 16.9694C11.4208 16.7794 11.4208 16.5894 11.4208 16.3994C11.4208 16.1994 11.4208 16.0094 11.4208 15.8094C11.4208 15.6894 11.4208 15.5694 11.4208 15.4494C11.4208 15.3694 11.4208 15.2794 11.4208 15.1994C11.4208 15.1494 11.4208 15.0994 11.4208 15.0594C11.4208 15.0094 11.4208 14.9594 11.4208 14.8994C11.4208 14.8894 11.4208 14.8694 11.4208 14.8494C11.4208 14.7194 11.4608 14.6294 11.5408 14.5294C11.6208 14.4494 11.7108 14.4094 11.8308 14.4094C11.8308 14.4094 11.8508 14.4094 11.8608 14.4094C11.8908 14.4094 11.9208 14.4094 11.9508 14.4094C11.9708 14.4094 11.9908 14.4094 12.0208 14.4094C12.0808 14.4094 12.1408 14.4094 12.2008 14.4094C12.2708 14.4094 12.3308 14.4094 12.4008 14.4094C12.5108 14.4094 12.6308 14.4094 12.7408 14.4094C12.9008 14.4094 13.0708 14.4094 13.2308 14.4094C13.5008 14.4094 13.7608 14.4094 14.0308 14.4094H14.0808C14.3108 14.4094 14.5308 14.4094 14.7608 14.4094H14.8108C14.8108 14.4094 14.8308 14.4094 14.8608 14.4094C15.1208 14.4094 15.3908 14.4094 15.6508 14.4094C15.8108 14.4094 15.9808 14.4094 16.1408 14.4094C16.2508 14.4094 16.3608 14.4094 16.4808 14.4094C16.5408 14.4094 16.6108 14.4094 16.6708 14.4094C17.4708 14.4094 18.2708 14.2294 18.9208 13.7094C18.9208 13.7094 18.9308 13.6994 18.9408 13.6894C19.1708 13.5094 19.3908 13.2994 19.5708 13.0494C19.5708 13.0494 19.5808 13.0294 19.5908 13.0294C19.7808 12.7694 19.9308 12.4794 20.0508 12.1794C20.0508 12.1594 20.0608 12.1494 20.0708 12.1294C20.2108 11.7494 20.2708 11.3494 20.2708 10.9394V10.8994C20.2708 10.6994 20.2708 10.4894 20.2308 10.2894C20.2308 10.2794 20.2308 10.2694 20.2308 10.2494C20.1208 9.61939 19.8308 9.03939 19.4308 8.55939C19.4308 8.54939 19.4108 8.53942 19.4008 8.52942C19.2908 8.38942 19.1708 8.26936 19.0308 8.15936C19.0208 8.14936 19.0008 8.13939 18.9908 8.11939C18.5708 7.74939 18.0508 7.50941 17.5108 7.38941C17.5108 7.38941 17.5008 7.38941 17.4808 7.38941C17.2108 7.32941 16.9408 7.3194 16.6708 7.3194C16.6408 7.3194 16.6108 7.3194 16.5808 7.3194C16.5008 7.3194 16.4208 7.3194 16.3508 7.3194C16.2708 7.3194 16.2008 7.3194 16.1208 7.3194C15.9208 7.3194 15.7208 7.3194 15.5208 7.3194C15.4208 7.3194 15.3308 7.3194 15.2308 7.3194C14.9008 7.3194 14.5808 7.3194 14.2508 7.3194H14.1908C14.1908 7.3194 14.1708 7.3194 14.1608 7.3194C14.1108 7.3194 14.0608 7.3194 14.0108 7.3194H13.9808C13.6508 7.3194 13.3208 7.3194 12.9908 7.3194C12.6408 7.3194 12.2908 7.3194 11.9408 7.3194H11.8208C11.8208 7.3194 11.8008 7.3194 11.7908 7.3194C11.6408 7.3194 11.4908 7.3194 11.3308 7.3194C11.1808 7.3194 11.0208 7.3194 10.8708 7.3194C10.7908 7.3194 10.7008 7.3194 10.6208 7.3194C10.5408 7.3194 10.4708 7.3194 10.3908 7.3194C10.3608 7.3194 10.3408 7.3194 10.3108 7.3194C10.0808 7.3194 9.86083 7.34939 9.64083 7.43939C9.61083 7.44939 9.59083 7.45936 9.56083 7.46936C9.55083 7.46936 9.54083 7.46937 9.53083 7.47937C9.37083 7.53937 9.20083 7.49939 9.05083 7.43939C8.85083 7.33939 8.74083 7.1594 8.66083 6.9494C8.61083 6.7594 8.65083 6.55941 8.73083 6.38941C8.83083 6.21941 8.97083 6.08937 9.16083 6.03937C9.33083 6.00937 9.50083 6.01942 9.65083 6.08942L9.56083 6.13941Z" fill="white"/>
<path d="M12.85 8.87816C12.85 8.87816 12.94 8.90815 12.98 8.92815C12.99 8.92815 13.01 8.93817 13.03 8.94817C13.14 8.97817 13.25 8.98815 13.37 8.98815C13.37 8.98815 13.3867 8.98815 13.42 8.98815C13.42 8.98815 13.5 8.98815 13.54 8.98815C13.58 8.98815 13.63 8.98815 13.67 8.98815C13.75 8.98815 13.82 8.98815 13.9 8.98815C14.01 8.98815 14.12 8.98815 14.23 8.98815C14.41 8.98815 14.59 8.98815 14.77 8.98815H14.8C14.95 8.98815 15.11 8.98815 15.26 8.98815H15.29C15.29 8.98815 15.31 8.98815 15.32 8.98815C15.5 8.98815 15.68 8.98815 15.86 8.98815C15.97 8.98815 16.08 8.98815 16.19 8.98815C16.27 8.98815 16.34 8.98815 16.42 8.98815C16.46 8.98815 16.51 8.98815 16.55 8.98815C17.17 8.98815 17.66 9.16816 18.11 9.62816C18.15 9.67816 18.19 9.71819 18.23 9.77819C18.23 9.77819 18.24 9.79816 18.25 9.80816C18.39 9.99816 18.49 10.2182 18.54 10.4582C18.54 10.4582 18.54 10.4781 18.54 10.4881C18.66 10.9681 18.57 11.4881 18.34 11.9181C18.09 12.3681 17.68 12.6882 17.21 12.8182C17.03 12.8682 16.84 12.8882 16.66 12.8882C16.64 12.8882 16.62 12.8882 16.6 12.8882C16.54 12.8882 16.49 12.8882 16.43 12.8882C16.37 12.8882 16.31 12.8882 16.25 12.8882C16.13 12.8882 16.01 12.8882 15.89 12.8882C15.79 12.8882 15.7 12.8882 15.6 12.8882C15.6 12.8882 15.5867 12.8882 15.56 12.8882H15.48C15.22 12.8882 14.96 12.8882 14.7 12.8882C14.48 12.8882 14.25 12.8882 14.03 12.8882C13.77 12.8882 13.51 12.8882 13.25 12.8882C13.22 12.8882 13.19 12.8882 13.17 12.8882H13.13C13.03 12.8882 12.94 12.8882 12.84 12.8882C12.72 12.8882 12.61 12.8882 12.49 12.8882H12.31C12.26 12.8882 12.2 12.8882 12.15 12.8882C12.13 12.8882 12.11 12.8882 12.09 12.8882C11.73 12.8882 11.46 12.7382 11.15 12.5582C11.05 12.4982 10.95 12.4482 10.85 12.3882C10.73 12.3282 10.61 12.2582 10.5 12.1982C10.4 12.1382 10.29 12.0882 10.19 12.0282C10.12 11.9882 10.05 11.9481 9.96999 11.9081C9.74999 11.7781 9.52999 11.6982 9.27999 11.6882C9.07999 11.6882 8.90999 11.6281 8.75999 11.4781C8.60999 11.2981 8.53999 11.0981 8.55999 10.8581C8.57999 10.6481 8.68999 10.4781 8.83999 10.3481C9.00999 10.2181 9.19999 10.1782 9.39999 10.2082C9.56999 10.2482 9.72999 10.3481 9.83999 10.4881C9.91999 10.5881 10.03 10.6581 10.14 10.7181C10.14 10.7181 10.15 10.7248 10.17 10.7381C10.28 10.7981 10.39 10.8581 10.5 10.9181C10.54 10.9381 10.58 10.9581 10.62 10.9881C10.62 10.9881 10.64 10.9982 10.65 11.0082C10.74 11.0582 10.83 11.1081 10.92 11.1581C11 11.1981 11.07 11.2381 11.15 11.2881C11.18 11.3081 11.21 11.3182 11.24 11.3382C11.24 11.3382 11.26 11.3381 11.26 11.3481C11.33 11.3881 11.4 11.4182 11.47 11.4582C11.53 11.4882 11.58 11.5181 11.64 11.5481C11.67 11.5681 11.7 11.5781 11.73 11.5981C11.81 11.6481 11.89 11.6782 11.98 11.7082H12C12.15 11.7482 12.3 11.7582 12.45 11.7582C12.47 11.7582 12.49 11.7582 12.51 11.7582C12.56 11.7582 12.61 11.7582 12.66 11.7582C12.72 11.7582 12.77 11.7582 12.83 11.7582C12.94 11.7582 13.05 11.7582 13.16 11.7582C13.25 11.7582 13.34 11.7582 13.43 11.7582C13.68 11.7582 13.93 11.7582 14.19 11.7582H14.23C14.23 11.7582 14.26 11.7582 14.27 11.7582C14.49 11.7582 14.71 11.7582 14.93 11.7582C15.16 11.7582 15.38 11.7582 15.61 11.7582C15.74 11.7582 15.86 11.7582 15.99 11.7582C16.1 11.7582 16.21 11.7582 16.31 11.7582C16.36 11.7582 16.42 11.7582 16.47 11.7582C16.52 11.7582 16.57 11.7582 16.62 11.7582C16.64 11.7582 16.66 11.7582 16.67 11.7582C16.91 11.7582 17.14 11.6982 17.31 11.5182C17.41 11.4082 17.47 11.2882 17.51 11.1482C17.51 11.1482 17.51 11.1282 17.51 11.1182C17.56 10.9382 17.53 10.7382 17.45 10.5782C17.34 10.3782 17.16 10.2181 16.94 10.1581C16.84 10.1381 16.76 10.1282 16.66 10.1282C16.65 10.1282 16.63 10.1282 16.62 10.1282C16.58 10.1282 16.54 10.1282 16.5 10.1282C16.46 10.1282 16.41 10.1282 16.37 10.1282C16.28 10.1282 16.2 10.1282 16.11 10.1282C16.04 10.1282 15.97 10.1282 15.9 10.1282C15.9 10.1282 15.88 10.1282 15.87 10.1282H15.81C15.62 10.1282 15.43 10.1282 15.24 10.1282C15.08 10.1282 14.91 10.1282 14.75 10.1282C14.56 10.1282 14.37 10.1282 14.18 10.1282C14.16 10.1282 14.14 10.1282 14.12 10.1282H14.09C14.02 10.1282 13.95 10.1282 13.88 10.1282C13.79 10.1282 13.71 10.1282 13.62 10.1282C13.58 10.1282 13.53 10.1282 13.49 10.1282C13.2833 10.1282 13.08 10.1548 12.88 10.2082H12.86C12.82 10.2282 12.78 10.2382 12.75 10.2582C12.61 10.3182 12.41 10.3082 12.27 10.2582C12.09 10.1782 11.96 10.0481 11.87 9.85814C11.87 9.84814 11.86 9.83818 11.85 9.82818C11.79 9.67818 11.79 9.44815 11.85 9.29815C11.86 9.26815 11.87 9.24814 11.89 9.22814C11.89 9.21814 11.9 9.19816 11.91 9.18816C12.01 9.00816 12.17 8.88818 12.37 8.82818C12.54 8.79818 12.69 8.82817 12.85 8.88817V8.87816Z" fill="white"/>
<path d="M53.5002 5.33069L53.8502 5.01069C56.4502 2.84069 60.7002 4.05067 61.4702 7.43067C62.4902 11.8807 58.1102 14.9707 54.2502 12.7007L53.4902 12.1407V17.1607H51.4902V4.0907H53.4902V5.33069H53.5002ZM56.0202 5.61066C53.2502 5.92066 52.4702 9.71066 54.6902 11.2307C56.5702 12.5207 59.3402 11.5007 59.6502 9.17066C59.9602 6.84066 58.2802 5.35065 56.0302 5.60065L56.0202 5.61066Z" fill="#808184"/>
<path d="M81.7402 1.71313V5.33313C83.4302 3.53313 86.4202 3.39314 88.2702 5.03314C90.6402 7.14314 90.2802 11.3231 87.4802 12.8831C85.5702 13.9331 83.3402 13.5431 81.7402 12.1331V13.2631H79.7402V1.70312H81.7402V1.71313ZM84.2102 5.56311C80.5502 6.02311 80.7602 12.1331 85.1202 11.8131C89.0302 11.5231 88.8702 4.97311 84.2102 5.56311Z" fill="#808184"/>
<path d="M34.2194 8.57172V13.2717H32.1094V1.01172H38.2394C38.5594 1.01172 39.3594 1.31168 39.6694 1.47168C42.4394 2.96168 42.3294 6.80168 39.5194 8.16168C39.2494 8.29168 38.5194 8.56171 38.2494 8.56171H34.2294L34.2194 8.57172ZM38.0294 2.84174H34.2194V6.73169H38.0794C38.5594 6.73169 39.3494 5.8217 39.4694 5.3717C39.7494 4.3617 39.1194 2.99174 38.0194 2.84174H38.0294Z" fill="#808184"/>
<path d="M72.3991 9.11167H64.5191C64.9291 12.1017 68.9691 12.5717 70.9191 10.7917L71.9391 12.0817C69.2891 14.3517 63.8791 13.8817 62.7291 10.2217C61.2991 5.65166 66.4891 2.26172 70.3591 4.59172C71.3291 5.17172 72.3991 6.57168 72.3991 7.74168V9.12168V9.11167ZM70.3391 7.7017C70.1291 4.7017 64.9991 4.8717 64.6191 7.7017H70.3391Z" fill="#808184"/>
<path d="M95.5501 3.89184C98.3001 3.71184 101 5.42184 101.18 8.33184C101.39 11.8018 98.3001 13.8718 95.0601 13.4318C89.1301 12.6118 89.3401 4.29185 95.5601 3.90185L95.5501 3.89184ZM95.4401 5.56182C92.4901 5.89182 91.7901 10.0418 94.3401 11.4318C96.2001 12.4418 98.8401 11.4518 99.1001 9.2318C99.3801 6.8818 97.7701 5.30182 95.4301 5.56182H95.4401Z" fill="#808184"/>
<path d="M50.3101 13.2602H48.4701V12.2901C47.7901 12.7901 47.0501 13.2402 46.2001 13.4002C43.9701 13.8102 41.4301 12.5001 42.0201 9.92013C42.6101 7.34013 46.5001 7.69015 48.4601 7.70015V6.92013C48.4601 6.69013 48.1001 6.22014 47.9201 6.06014C46.6801 5.02014 44.5001 5.63017 43.5201 6.78017C43.3401 6.82017 42.4701 5.78016 42.2001 5.71016C42.1201 5.60016 43.2801 4.78015 43.4301 4.70015C45.1301 3.69015 48.3901 3.41015 49.7301 5.13015C49.9501 5.41015 50.3001 6.16014 50.3001 6.50014V13.2802L50.3101 13.2602ZM48.4801 9.11013C47.3001 9.20013 45.4401 8.87014 44.4201 9.56014C43.3301 10.3101 43.8601 11.7601 45.1101 11.9101C46.3301 12.0601 47.6501 11.5502 48.4801 10.6502V9.11013Z" fill="#808184"/>
<path d="M105.279 1.71094V4.09094H107.659V5.81091H105.279V13.2609H103.279V5.81091H101.119V4.09094H103.279V1.71094H105.279Z" fill="#808184"/>
<path d="M74.9902 5.76314C75.9202 4.32314 77.5502 3.51316 79.2602 4.03316L78.7202 5.95315C78.2202 5.91315 77.8202 5.76314 77.2902 5.82314C76.2902 5.93314 74.9902 6.93313 74.9902 8.00313V13.2631H72.9902V4.08315H74.9902V5.75313V5.76314Z" fill="#808184"/>
<path d="M32.9338 28.1016V20.5416H37.4938V21.5736H34.2178V23.8656H37.2298V24.8856H34.2178V28.1016H32.9338ZM38.8049 28.1016V20.5416H40.0889V28.1016H38.8049ZM41.9103 28.1016V20.5416H43.0503L46.0383 24.7656C46.2063 25.0056 46.3703 25.2576 46.5303 25.5216C46.6983 25.7776 46.8343 26.0176 46.9383 26.2416H46.9623C46.9383 25.9136 46.9223 25.5856 46.9143 25.2576C46.9063 24.9216 46.9023 24.5896 46.9023 24.2616V20.5416H48.1383V28.1016H46.9983L43.9983 23.9136C43.8383 23.6816 43.6783 23.4296 43.5183 23.1576C43.3663 22.8856 43.2263 22.6136 43.0983 22.3416H43.0743C43.0983 22.7096 43.1143 23.0776 43.1223 23.4456C43.1303 23.8136 43.1343 24.1856 43.1343 24.5616V28.1016H41.9103ZM51.4128 28.1016V21.5976H49.1688V20.5416H54.9888V21.5976H52.6968V28.1016H51.4128ZM56.0197 28.1016V20.5416H60.6997V21.5736H57.3037V23.6616H60.3877V24.6816H57.3037V27.0696H60.7357V28.1016H56.0197ZM65.3431 28.2096C64.6471 28.2096 64.0191 28.0576 63.4591 27.7536C62.8991 27.4496 62.4551 27.0096 62.1271 26.4336C61.7991 25.8496 61.6351 25.1456 61.6351 24.3216C61.6351 23.5056 61.7951 22.8096 62.1151 22.2336C62.4351 21.6496 62.8751 21.2016 63.4351 20.8896C64.0031 20.5776 64.6551 20.4216 65.3911 20.4216C65.8951 20.4216 66.3111 20.4656 66.6391 20.5536C66.9671 20.6336 67.2551 20.7376 67.5031 20.8656L67.2031 21.8496C66.9311 21.7216 66.6711 21.6256 66.4231 21.5616C66.1751 21.4896 65.8831 21.4536 65.5471 21.4536C65.0911 21.4536 64.6711 21.5496 64.2871 21.7416C63.9031 21.9336 63.5951 22.2416 63.3631 22.6656C63.1311 23.0816 63.0151 23.6336 63.0151 24.3216C63.0151 25.0016 63.1271 25.5536 63.3511 25.9776C63.5751 26.3936 63.8751 26.6976 64.2511 26.8896C64.6271 27.0816 65.0391 27.1776 65.4871 27.1776C65.8711 27.1776 66.1911 27.1456 66.4471 27.0816C66.7111 27.0176 66.9591 26.9296 67.1911 26.8176L67.4671 27.8136C67.2191 27.9336 66.9231 28.0296 66.5791 28.1016C66.2431 28.1736 65.8311 28.2096 65.3431 28.2096ZM68.7111 28.1016V20.5416H69.9951V23.6616H73.3431V20.5416H74.6271V28.1016H73.3431V24.7176H69.9951V28.1016H68.7111ZM81.1928 28.2096C80.7848 28.2096 80.3768 28.1696 79.9688 28.0896C79.5688 28.0096 79.1768 27.8816 78.7928 27.7056L79.0928 26.6976C79.4368 26.8656 79.7728 26.9936 80.1008 27.0816C80.4288 27.1616 80.7728 27.2016 81.1328 27.2016C81.5648 27.2016 81.9168 27.1096 82.1888 26.9256C82.4688 26.7416 82.6088 26.4736 82.6088 26.1216C82.6088 25.8656 82.5128 25.6376 82.3208 25.4376C82.1368 25.2376 81.7688 25.0496 81.2168 24.8736L80.5088 24.6456C79.9568 24.4616 79.5208 24.2136 79.2008 23.9016C78.8888 23.5896 78.7328 23.1616 78.7328 22.6176C78.7328 21.9536 78.9608 21.4216 79.4168 21.0216C79.8728 20.6216 80.5248 20.4216 81.3728 20.4216C81.7728 20.4216 82.1528 20.4576 82.5128 20.5296C82.8728 20.6016 83.2088 20.7176 83.5208 20.8776L83.2208 21.8976C82.8928 21.7376 82.5848 21.6216 82.2968 21.5496C82.0088 21.4696 81.7208 21.4296 81.4328 21.4296C81.0008 21.4296 80.6608 21.5216 80.4128 21.7056C80.1648 21.8896 80.0408 22.1456 80.0408 22.4736C80.0408 22.7616 80.1368 22.9896 80.3288 23.1576C80.5288 23.3256 80.8408 23.4776 81.2648 23.6136L82.0088 23.8536C82.6648 24.0616 83.1448 24.3536 83.4488 24.7296C83.7608 25.0976 83.9168 25.5216 83.9168 26.0016C83.9168 26.4416 83.8048 26.8256 83.5808 27.1536C83.3568 27.4816 83.0408 27.7416 82.6328 27.9336C82.2248 28.1176 81.7448 28.2096 81.1928 28.2096ZM88.5323 28.2096C87.8443 28.2096 87.2283 28.0656 86.6843 27.7776C86.1403 27.4816 85.7123 27.0456 85.4003 26.4696C85.0883 25.8856 84.9323 25.1696 84.9323 24.3216C84.9323 23.4896 85.0923 22.7856 85.4123 22.2096C85.7323 21.6256 86.1683 21.1816 86.7203 20.8776C87.2723 20.5736 87.8923 20.4216 88.5803 20.4216C89.2763 20.4216 89.8923 20.5696 90.4283 20.8656C90.9723 21.1616 91.4003 21.6016 91.7123 22.1856C92.0243 22.7616 92.1803 23.4736 92.1803 24.3216C92.1803 25.1536 92.0203 25.8616 91.7003 26.4456C91.3803 27.0216 90.9443 27.4616 90.3923 27.7656C89.8483 28.0616 89.2283 28.2096 88.5323 28.2096ZM88.5803 27.2016C88.9963 27.2016 89.3723 27.0976 89.7083 26.8896C90.0443 26.6816 90.3083 26.3656 90.5003 25.9416C90.7003 25.5096 90.8003 24.9696 90.8003 24.3216C90.8003 23.6496 90.6963 23.1016 90.4883 22.6776C90.2883 22.2536 90.0163 21.9416 89.6723 21.7416C89.3283 21.5336 88.9483 21.4296 88.5323 21.4296C88.1163 21.4296 87.7403 21.5376 87.4043 21.7536C87.0683 21.9616 86.8003 22.2776 86.6003 22.7016C86.4083 23.1256 86.3123 23.6656 86.3123 24.3216C86.3123 24.9696 86.4123 25.5096 86.6123 25.9416C86.8203 26.3656 87.0963 26.6816 87.4403 26.8896C87.7843 27.0976 88.1643 27.2016 88.5803 27.2016ZM93.6369 28.1016V20.5416H94.9209V27.0456H98.0889V28.1016H93.6369ZM101.886 28.2096C100.934 28.2096 100.19 27.9616 99.654 27.4656C99.118 26.9616 98.85 26.1656 98.85 25.0776V20.5416H100.134V25.0656C100.134 25.8176 100.274 26.3616 100.554 26.6976C100.834 27.0256 101.278 27.1896 101.886 27.1896C102.494 27.1896 102.938 27.0056 103.218 26.6376C103.498 26.2696 103.638 25.7936 103.638 25.2096V20.5416H104.922V25.1376C104.922 26.1776 104.658 26.9496 104.13 27.4536C103.602 27.9576 102.854 28.2096 101.886 28.2096ZM108.132 28.1016V21.5976H105.888V20.5416H111.708V21.5976H109.416V28.1016H108.132ZM112.738 28.1016V20.5416H114.022V28.1016H112.738ZM119.048 28.2096C118.36 28.2096 117.744 28.0656 117.2 27.7776C116.656 27.4816 116.228 27.0456 115.916 26.4696C115.604 25.8856 115.448 25.1696 115.448 24.3216C115.448 23.4896 115.608 22.7856 115.928 22.2096C116.248 21.6256 116.684 21.1816 117.236 20.8776C117.788 20.5736 118.408 20.4216 119.096 20.4216C119.792 20.4216 120.408 20.5696 120.944 20.8656C121.488 21.1616 121.916 21.6016 122.228 22.1856C122.54 22.7616 122.696 23.4736 122.696 24.3216C122.696 25.1536 122.536 25.8616 122.216 26.4456C121.896 27.0216 121.46 27.4616 120.908 27.7656C120.364 28.0616 119.744 28.2096 119.048 28.2096ZM119.096 27.2016C119.512 27.2016 119.888 27.0976 120.224 26.8896C120.56 26.6816 120.824 26.3656 121.016 25.9416C121.216 25.5096 121.316 24.9696 121.316 24.3216C121.316 23.6496 121.212 23.1016 121.004 22.6776C120.804 22.2536 120.532 21.9416 120.188 21.7416C119.844 21.5336 119.464 21.4296 119.048 21.4296C118.632 21.4296 118.256 21.5376 117.92 21.7536C117.584 21.9616 117.316 22.2776 117.116 22.7016C116.924 23.1256 116.828 23.6656 116.828 24.3216C116.828 24.9696 116.928 25.5096 117.128 25.9416C117.336 26.3656 117.612 26.6816 117.956 26.8896C118.3 27.0976 118.68 27.2016 119.096 27.2016ZM124.153 28.1016V20.5416H125.293L128.281 24.7656C128.449 25.0056 128.613 25.2576 128.773 25.5216C128.941 25.7776 129.077 26.0176 129.181 26.2416H129.205C129.181 25.9136 129.165 25.5856 129.157 25.2576C129.149 24.9216 129.145 24.5896 129.145 24.2616V20.5416H130.381V28.1016H129.241L126.241 23.9136C126.081 23.6816 125.921 23.4296 125.761 23.1576C125.609 22.8856 125.469 22.6136 125.341 22.3416H125.317C125.341 22.7096 125.357 23.0776 125.365 23.4456C125.373 23.8136 125.377 24.1856 125.377 24.5616V28.1016H124.153ZM134.267 28.2096C133.859 28.2096 133.451 28.1696 133.043 28.0896C132.643 28.0096 132.251 27.8816 131.867 27.7056L132.167 26.6976C132.511 26.8656 132.847 26.9936 133.175 27.0816C133.503 27.1616 133.847 27.2016 134.207 27.2016C134.639 27.2016 134.991 27.1096 135.263 26.9256C135.543 26.7416 135.683 26.4736 135.683 26.1216C135.683 25.8656 135.587 25.6376 135.395 25.4376C135.211 25.2376 134.843 25.0496 134.291 24.8736L133.583 24.6456C133.031 24.4616 132.595 24.2136 132.275 23.9016C131.963 23.5896 131.807 23.1616 131.807 22.6176C131.807 21.9536 132.035 21.4216 132.491 21.0216C132.947 20.6216 133.599 20.4216 134.447 20.4216C134.847 20.4216 135.227 20.4576 135.587 20.5296C135.947 20.6016 136.283 20.7176 136.595 20.8776L136.295 21.8976C135.967 21.7376 135.659 21.6216 135.371 21.5496C135.083 21.4696 134.795 21.4296 134.507 21.4296C134.075 21.4296 133.735 21.5216 133.487 21.7056C133.239 21.8896 133.115 22.1456 133.115 22.4736C133.115 22.7616 133.211 22.9896 133.403 23.1576C133.603 23.3256 133.915 23.4776 134.339 23.6136L135.083 23.8536C135.739 24.0616 136.219 24.3536 136.523 24.7296C136.835 25.0976 136.991 25.5216 136.991 26.0016C136.991 26.4416 136.879 26.8256 136.655 27.1536C136.431 27.4816 136.115 27.7416 135.707 27.9336C135.299 28.1176 134.819 28.2096 134.267 28.2096Z" fill="#6E6E73"/>
</g>
<defs>
<linearGradient id="paint0_linear_3171_6200" x1="-0.650391" y1="13.4516" x2="27.5396" y2="13.4516" gradientUnits="userSpaceOnUse">
<stop stop-color="#3C4FA1"/>
<stop offset="0.1" stop-color="#3D57A6"/>
<stop offset="0.38" stop-color="#4069B2"/>
<stop offset="0.67" stop-color="#4274B8"/>
<stop offset="1" stop-color="#4378BB"/>
</linearGradient>
<linearGradient id="paint1_linear_3171_6200" x1="13.4492" y1="25.4614" x2="13.4492" y2="1.45141" gradientUnits="userSpaceOnUse">
<stop stop-color="#3C4FA1"/>
<stop offset="0.1" stop-color="#3D57A6"/>
<stop offset="0.38" stop-color="#4069B2"/>
<stop offset="0.67" stop-color="#4274B8"/>
<stop offset="1" stop-color="#4378BB"/>
</linearGradient>
</defs>
</svg>
