<svg width="237" height="45" viewBox="0 0 237 45" fill="none" xmlns="http://www.w3.org/2000/svg">
<path d="M54.8714 21V5.81H61.4465C62.8064 5.81 63.9782 6.03423 64.9619 6.4827C65.9456 6.9167 66.7051 7.546 67.2404 8.3706C67.7757 9.1952 68.0433 10.1789 68.0433 11.3218C68.0433 12.4502 67.7757 13.4267 67.2404 14.2513C66.7051 15.0759 65.9456 15.7124 64.9619 16.1609C63.9782 16.5949 62.8064 16.8119 61.4465 16.8119H56.8244L58.3868 15.2278V21H54.8714ZM58.3868 15.6184L56.8244 13.9475H61.2512C62.3362 13.9475 63.1463 13.716 63.6816 13.2531C64.2169 12.7902 64.4845 12.1464 64.4845 11.3218C64.4845 10.4827 64.2169 9.83173 63.6816 9.3688C63.1463 8.90587 62.3362 8.6744 61.2512 8.6744H56.8244L58.3868 7.0035V15.6184ZM67.7938 21L74.5642 5.81H78.0362L84.8283 21H81.1393L75.5841 7.5894H76.9729L71.396 21H67.7938ZM71.179 17.745L72.1121 15.0759H79.9241L80.8789 17.745H71.179ZM86.4042 21V5.81H92.9793C94.3392 5.81 95.511 6.03423 96.4947 6.4827C97.4785 6.9167 98.238 7.546 98.7732 8.3706C99.3085 9.1952 99.5761 10.1789 99.5761 11.3218C99.5761 12.4502 99.3085 13.4267 98.7732 14.2513C98.238 15.0759 97.4785 15.7124 96.4947 16.1609C95.511 16.5949 94.3392 16.8119 92.9793 16.8119H88.3572L89.9196 15.2278V21H86.4042ZM89.9196 15.6184L88.3572 13.9475H92.784C93.869 13.9475 94.6792 13.716 95.2144 13.2531C95.7497 12.7902 96.0173 12.1464 96.0173 11.3218C96.0173 10.4827 95.7497 9.83173 95.2144 9.3688C94.6792 8.90587 93.869 8.6744 92.784 8.6744H88.3572L89.9196 7.0035V15.6184ZM105.319 11.9294H112.632V14.6636H105.319V11.9294ZM105.58 18.179H113.847V21H102.086V5.81H113.565V8.631H105.58V18.179ZM116.644 21V5.81H123.219C124.579 5.81 125.751 6.03423 126.735 6.4827C127.719 6.9167 128.478 7.546 129.013 8.3706C129.549 9.1952 129.816 10.1789 129.816 11.3218C129.816 12.4502 129.549 13.4267 129.013 14.2513C128.478 15.0614 127.719 15.6835 126.735 16.1175C125.751 16.5515 124.579 16.7685 123.219 16.7685H118.597L120.16 15.2278V21H116.644ZM126.301 21L122.503 15.4882H126.257L130.098 21H126.301ZM120.16 15.6184L118.597 13.9692H123.024C124.109 13.9692 124.919 13.7377 125.455 13.2748C125.99 12.7974 126.257 12.1464 126.257 11.3218C126.257 10.4827 125.99 9.83173 125.455 9.3688C124.919 8.90587 124.109 8.6744 123.024 8.6744H118.597L120.16 7.0035V15.6184ZM132.601 21V5.81H140.023C141.932 5.81 143.365 6.17167 144.319 6.895C145.289 7.61833 145.773 8.57313 145.773 9.7594C145.773 10.5551 145.578 11.2495 145.187 11.8426C144.797 12.4213 144.262 12.8697 143.582 13.188C142.902 13.5063 142.121 13.6654 141.238 13.6654L141.65 12.7757C142.605 12.7757 143.451 12.9348 144.189 13.2531C144.927 13.5569 145.499 14.0126 145.904 14.6202C146.323 15.2278 146.533 15.9728 146.533 16.8553C146.533 18.1573 146.019 19.1772 144.992 19.915C143.965 20.6383 142.453 21 140.457 21H132.601ZM136.095 18.3526H140.196C141.108 18.3526 141.795 18.2079 142.258 17.9186C142.735 17.6148 142.974 17.1374 142.974 16.4864C142.974 15.8499 142.735 15.3797 142.258 15.0759C141.795 14.7576 141.108 14.5985 140.196 14.5985H135.835V12.0379H139.589C140.442 12.0379 141.093 11.8932 141.542 11.6039C142.005 11.3001 142.236 10.8444 142.236 10.2368C142.236 9.64367 142.005 9.20243 141.542 8.9131C141.093 8.6093 140.442 8.4574 139.589 8.4574H136.095V18.3526ZM156.572 21.2604C155.372 21.2604 154.258 21.0651 153.231 20.6745C152.218 20.2839 151.335 19.7342 150.583 19.0253C149.845 18.3164 149.267 17.4846 148.847 16.5298C148.442 15.575 148.24 14.5334 148.24 13.405C148.24 12.2766 148.442 11.235 148.847 10.2802C149.267 9.3254 149.853 8.49357 150.605 7.7847C151.357 7.07583 152.24 6.5261 153.252 6.1355C154.265 5.7449 155.364 5.5496 156.551 5.5496C157.751 5.5496 158.851 5.7449 159.849 6.1355C160.862 6.5261 161.737 7.07583 162.475 7.7847C163.227 8.49357 163.813 9.3254 164.232 10.2802C164.652 11.2205 164.862 12.2621 164.862 13.405C164.862 14.5334 164.652 15.5822 164.232 16.5515C163.813 17.5063 163.227 18.3381 162.475 19.047C161.737 19.7414 160.862 20.2839 159.849 20.6745C158.851 21.0651 157.759 21.2604 156.572 21.2604ZM156.551 18.2658C157.231 18.2658 157.853 18.1501 158.417 17.9186C158.996 17.6871 159.502 17.3544 159.936 16.9204C160.37 16.4864 160.703 15.9728 160.934 15.3797C161.18 14.7866 161.303 14.1283 161.303 13.405C161.303 12.6817 161.18 12.0234 160.934 11.4303C160.703 10.8372 160.37 10.3236 159.936 9.8896C159.516 9.4556 159.017 9.12287 158.439 8.8914C157.86 8.65993 157.231 8.5442 156.551 8.5442C155.871 8.5442 155.241 8.65993 154.663 8.8914C154.099 9.12287 153.599 9.4556 153.165 9.8896C152.731 10.3236 152.391 10.8372 152.146 11.4303C151.914 12.0234 151.798 12.6817 151.798 13.405C151.798 14.1139 151.914 14.7721 152.146 15.3797C152.391 15.9728 152.724 16.4864 153.144 16.9204C153.578 17.3544 154.084 17.6871 154.663 17.9186C155.241 18.1501 155.871 18.2658 156.551 18.2658ZM170.438 21V8.6744H165.578V5.81H178.815V8.6744H173.954V21H170.438Z" fill="#4378BB"/>
<path d="M56.9358 34.3511H62.51V36.5078H56.9358V34.3511ZM57.1349 40.7383H54.4473V29.1253H63.2234V31.282H57.1349V40.7383ZM65.0428 40.7383V29.1253H67.7304V40.7383H65.0428ZM70.4864 40.7383V29.1253H72.7095L79.5612 37.4866H78.4828V29.1253H81.1372V40.7383H78.9308L72.0625 32.3769H73.1408V40.7383H70.4864ZM86.2904 40.7383V31.3152H82.5742V29.1253H92.6941V31.3152H88.9779V40.7383H86.2904ZM96.6121 33.8037H102.203V35.894H96.6121V33.8037ZM96.8111 38.5816H103.132V40.7383H94.1402V29.1253H102.916V31.282H96.8111V38.5816ZM110.828 40.9374C109.932 40.9374 109.097 40.7936 108.323 40.506C107.56 40.2074 106.896 39.7871 106.332 39.2452C105.768 38.7032 105.326 38.0673 105.005 37.3373C104.695 36.6074 104.54 35.8055 104.54 34.9318C104.54 34.058 104.695 33.2562 105.005 32.5262C105.326 31.7963 105.768 31.1603 106.332 30.6184C106.907 30.0764 107.576 29.6617 108.34 29.3741C109.103 29.0755 109.938 28.9262 110.845 28.9262C111.851 28.9262 112.758 29.1032 113.565 29.4571C114.384 29.7999 115.07 30.3087 115.623 30.9834L113.897 32.576C113.499 32.1225 113.057 31.7852 112.57 31.564C112.083 31.3318 111.552 31.2156 110.977 31.2156C110.435 31.2156 109.938 31.3041 109.484 31.4811C109.031 31.658 108.638 31.9124 108.306 32.2442C107.975 32.576 107.715 32.9686 107.527 33.4221C107.35 33.8756 107.261 34.3788 107.261 34.9318C107.261 35.4848 107.35 35.988 107.527 36.4415C107.715 36.8949 107.975 37.2876 108.306 37.6194C108.638 37.9512 109.031 38.2055 109.484 38.3825C109.938 38.5595 110.435 38.6479 110.977 38.6479C111.552 38.6479 112.083 38.5373 112.57 38.3161C113.057 38.0839 113.499 37.7355 113.897 37.271L115.623 38.8636C115.07 39.5383 114.384 40.0526 113.565 40.4065C112.758 40.7604 111.846 40.9374 110.828 40.9374ZM125.401 29.1253H128.088V40.7383H125.401V29.1253ZM120.125 40.7383H117.437V29.1253H120.125V40.7383ZM125.6 35.977H119.926V33.7041H125.6V35.977ZM139.35 40.9374C138.421 40.9374 137.53 40.8157 136.679 40.5724C135.827 40.318 135.142 39.9917 134.622 39.5936L135.534 37.5696C136.032 37.9235 136.618 38.2166 137.293 38.4489C137.978 38.6701 138.67 38.7807 139.366 38.7807C139.897 38.7807 140.323 38.7309 140.644 38.6314C140.976 38.5208 141.219 38.3714 141.374 38.1834C141.529 37.9954 141.606 37.7797 141.606 37.5364C141.606 37.2267 141.484 36.9834 141.241 36.8065C140.998 36.6184 140.677 36.4691 140.279 36.3585C139.881 36.2369 139.438 36.1263 138.952 36.0267C138.476 35.9161 137.995 35.7834 137.508 35.6286C137.033 35.4737 136.596 35.2746 136.198 35.0313C135.8 34.788 135.473 34.4673 135.219 34.0691C134.976 33.6709 134.854 33.1622 134.854 32.5428C134.854 31.8792 135.031 31.2765 135.385 30.7345C135.75 30.1815 136.292 29.7446 137.011 29.4239C137.741 29.0921 138.653 28.9262 139.748 28.9262C140.478 28.9262 141.197 29.0147 141.905 29.1916C142.613 29.3575 143.237 29.6119 143.779 29.9548L142.95 31.9954C142.408 31.6857 141.866 31.4589 141.324 31.3152C140.782 31.1603 140.251 31.0829 139.731 31.0829C139.212 31.0829 138.786 31.1437 138.454 31.2654C138.122 31.3871 137.884 31.5474 137.741 31.7465C137.597 31.9345 137.525 32.1557 137.525 32.4101C137.525 32.7087 137.647 32.952 137.89 33.1401C138.133 33.317 138.454 33.4608 138.852 33.5714C139.25 33.682 139.687 33.7926 140.163 33.9032C140.649 34.0138 141.131 34.141 141.606 34.2848C142.093 34.4286 142.535 34.6221 142.933 34.8654C143.331 35.1087 143.652 35.4295 143.896 35.8276C144.15 36.2258 144.277 36.729 144.277 37.3373C144.277 37.9899 144.095 38.5871 143.73 39.1291C143.365 39.671 142.817 40.1079 142.087 40.4397C141.368 40.7715 140.456 40.9374 139.35 40.9374ZM151.754 40.9374C150.836 40.9374 149.985 40.7881 149.199 40.4894C148.425 40.1908 147.75 39.7705 147.175 39.2286C146.611 38.6867 146.169 38.0507 145.848 37.3207C145.538 36.5908 145.384 35.7945 145.384 34.9318C145.384 34.0691 145.538 33.2728 145.848 32.5428C146.169 31.8129 146.617 31.1769 147.192 30.635C147.767 30.093 148.442 29.6728 149.216 29.3741C149.99 29.0755 150.831 28.9262 151.738 28.9262C152.656 28.9262 153.496 29.0755 154.259 29.3741C155.033 29.6728 155.703 30.093 156.267 30.635C156.842 31.1769 157.29 31.8129 157.61 32.5428C157.931 33.2617 158.091 34.058 158.091 34.9318C158.091 35.7945 157.931 36.5963 157.61 37.3373C157.29 38.0673 156.842 38.7032 156.267 39.2452C155.703 39.7761 155.033 40.1908 154.259 40.4894C153.496 40.7881 152.661 40.9374 151.754 40.9374ZM151.738 38.6479C152.257 38.6479 152.733 38.5595 153.164 38.3825C153.607 38.2055 153.994 37.9512 154.326 37.6194C154.657 37.2876 154.912 36.8949 155.089 36.4415C155.277 35.988 155.371 35.4848 155.371 34.9318C155.371 34.3788 155.277 33.8756 155.089 33.4221C154.912 32.9686 154.657 32.576 154.326 32.2442C154.005 31.9124 153.623 31.658 153.181 31.4811C152.738 31.3041 152.257 31.2156 151.738 31.2156C151.218 31.2156 150.737 31.3041 150.294 31.4811C149.863 31.658 149.481 31.9124 149.149 32.2442C148.818 32.576 148.558 32.9686 148.37 33.4221C148.193 33.8756 148.104 34.3788 148.104 34.9318C148.104 35.4737 148.193 35.977 148.37 36.4415C148.558 36.8949 148.812 37.2876 149.133 37.6194C149.465 37.9512 149.852 38.2055 150.294 38.3825C150.737 38.5595 151.218 38.6479 151.738 38.6479ZM160.111 40.7383V29.1253H162.799V38.5484H168.622V40.7383H160.111ZM175.154 40.9374C173.506 40.9374 172.217 40.4784 171.288 39.5604C170.359 38.6424 169.895 37.3318 169.895 35.6286V29.1253H172.582V35.529C172.582 36.635 172.809 37.4313 173.262 37.918C173.716 38.4046 174.352 38.6479 175.17 38.6479C175.989 38.6479 176.625 38.4046 177.078 37.918C177.531 37.4313 177.758 36.635 177.758 35.529V29.1253H180.413V35.6286C180.413 37.3318 179.948 38.6424 179.019 39.5604C178.09 40.4784 176.801 40.9374 175.154 40.9374ZM185.28 40.7383V31.3152H181.563V29.1253H191.683V31.3152H187.967V40.7383H185.28ZM193.129 40.7383V29.1253H195.817V40.7383H193.129ZM204.214 40.9374C203.296 40.9374 202.444 40.7881 201.659 40.4894C200.884 40.1908 200.21 39.7705 199.635 39.2286C199.071 38.6867 198.628 38.0507 198.307 37.3207C197.998 36.5908 197.843 35.7945 197.843 34.9318C197.843 34.0691 197.998 33.2728 198.307 32.5428C198.628 31.8129 199.076 31.1769 199.651 30.635C200.226 30.093 200.901 29.6728 201.675 29.3741C202.449 29.0755 203.29 28.9262 204.197 28.9262C205.115 28.9262 205.955 29.0755 206.719 29.3741C207.493 29.6728 208.162 30.093 208.726 30.635C209.301 31.1769 209.749 31.8129 210.07 32.5428C210.391 33.2617 210.551 34.058 210.551 34.9318C210.551 35.7945 210.391 36.5963 210.07 37.3373C209.749 38.0673 209.301 38.7032 208.726 39.2452C208.162 39.7761 207.493 40.1908 206.719 40.4894C205.955 40.7881 205.12 40.9374 204.214 40.9374ZM204.197 38.6479C204.717 38.6479 205.192 38.5595 205.624 38.3825C206.066 38.2055 206.453 37.9512 206.785 37.6194C207.117 37.2876 207.371 36.8949 207.548 36.4415C207.736 35.988 207.83 35.4848 207.83 34.9318C207.83 34.3788 207.736 33.8756 207.548 33.4221C207.371 32.9686 207.117 32.576 206.785 32.2442C206.464 31.9124 206.083 31.658 205.64 31.4811C205.198 31.3041 204.717 31.2156 204.197 31.2156C203.677 31.2156 203.196 31.3041 202.754 31.4811C202.322 31.658 201.941 31.9124 201.609 32.2442C201.277 32.576 201.017 32.9686 200.829 33.4221C200.652 33.8756 200.564 34.3788 200.564 34.9318C200.564 35.4737 200.652 35.977 200.829 36.4415C201.017 36.8949 201.272 37.2876 201.592 37.6194C201.924 37.9512 202.311 38.2055 202.754 38.3825C203.196 38.5595 203.677 38.6479 204.197 38.6479ZM212.571 40.7383V29.1253H214.794L221.645 37.4866H220.567V29.1253H223.222V40.7383H221.015L214.147 32.3769H215.225V40.7383H212.571ZM229.785 40.9374C228.856 40.9374 227.965 40.8157 227.114 40.5724C226.262 40.318 225.576 39.9917 225.057 39.5936L225.969 37.5696C226.467 37.9235 227.053 38.2166 227.728 38.4489C228.413 38.6701 229.105 38.7807 229.801 38.7807C230.332 38.7807 230.758 38.7309 231.079 38.6314C231.411 38.5208 231.654 38.3714 231.809 38.1834C231.964 37.9954 232.041 37.7797 232.041 37.5364C232.041 37.2267 231.919 36.9834 231.676 36.8065C231.433 36.6184 231.112 36.4691 230.714 36.3585C230.316 36.2369 229.873 36.1263 229.387 36.0267C228.911 35.9161 228.43 35.7834 227.943 35.6286C227.468 35.4737 227.031 35.2746 226.633 35.0313C226.235 34.788 225.908 34.4673 225.654 34.0691C225.411 33.6709 225.289 33.1622 225.289 32.5428C225.289 31.8792 225.466 31.2765 225.82 30.7345C226.185 30.1815 226.727 29.7446 227.446 29.4239C228.176 29.0921 229.088 28.9262 230.183 28.9262C230.913 28.9262 231.632 29.0147 232.34 29.1916C233.047 29.3575 233.672 29.6119 234.214 29.9548L233.385 31.9954C232.843 31.6857 232.301 31.4589 231.759 31.3152C231.217 31.1603 230.686 31.0829 230.166 31.0829C229.647 31.0829 229.221 31.1437 228.889 31.2654C228.557 31.3871 228.319 31.5474 228.176 31.7465C228.032 31.9345 227.96 32.1557 227.96 32.4101C227.96 32.7087 228.082 32.952 228.325 33.1401C228.568 33.317 228.889 33.4608 229.287 33.5714C229.685 33.682 230.122 33.7926 230.598 33.9032C231.084 34.0138 231.565 34.141 232.041 34.2848C232.528 34.4286 232.97 34.6221 233.368 34.8654C233.766 35.1087 234.087 35.4295 234.33 35.8276C234.585 36.2258 234.712 36.729 234.712 37.3373C234.712 37.9899 234.53 38.5871 234.165 39.1291C233.8 39.671 233.252 40.1079 232.522 40.4397C231.803 40.7715 230.891 40.9374 229.785 40.9374Z" fill="#4A4B4C"/>
<mask id="mask0_3174_6222" style="mask-type:luminance" maskUnits="userSpaceOnUse" x="0" y="4" width="41" height="41">
<path d="M35.74 4.41016H4.39C1.96547 4.41016 0 6.37563 0 8.80016V40.1502C0 42.5747 1.96547 44.5402 4.39 44.5402H35.74C38.1645 44.5402 40.13 42.5747 40.13 40.1502V8.80016C40.13 6.37563 38.1645 4.41016 35.74 4.41016Z" fill="white"/>
</mask>
<g mask="url(#mask0_3174_6222)">
<path d="M4.3893 3.44141C1.4293 3.44141 -0.970703 5.84141 -0.970703 8.80141H0.969299C0.969299 6.91141 2.4993 5.38141 4.3893 5.38141V3.44141ZM35.7393 5.38141C37.6293 5.38141 39.1593 6.91141 39.1593 8.80141H41.0993C41.0993 5.84141 38.6993 3.44141 35.7393 3.44141V5.38141ZM39.1593 40.1514C39.1593 42.0414 37.6293 43.5714 35.7393 43.5714V45.5114C38.6993 45.5114 41.0993 43.1114 41.0993 40.1514H39.1593ZM4.3893 43.5614C2.4993 43.5614 0.969299 42.0314 0.969299 40.1414H-0.970703C-0.970703 43.1014 1.4293 45.5014 4.3893 45.5014V43.5614ZM0.979298 40.1514V8.80141H-0.960701V40.1514H0.979298ZM35.7393 43.5614H4.3893V45.5014H35.7393V43.5614ZM39.1593 8.80141V40.1514H41.0993V8.80141H39.1593ZM4.3893 5.38141H35.7393V3.44141H4.3893V5.38141Z" fill="url(#paint0_linear_3174_6222)"/>
</g>
<path d="M34.7002 6.55859H5.46016C3.63762 6.55859 2.16016 8.03606 2.16016 9.8586V39.0986C2.16016 40.9211 3.63762 42.3986 5.46016 42.3986H34.7002C36.5227 42.3986 38.0002 40.9211 38.0002 39.0986V9.8586C38.0002 8.03606 36.5227 6.55859 34.7002 6.55859Z" fill="url(#paint1_radial_3174_6222)"/>
<path d="M14.2699 13.5789C14.5899 13.7089 14.8999 13.7389 15.2299 13.7389C15.2699 13.7389 15.3199 13.7389 15.3599 13.7389C15.4799 13.7389 15.5899 13.7389 15.7099 13.7389C15.8199 13.7389 15.9399 13.7389 16.0499 13.7389C16.2799 13.7389 16.5099 13.7389 16.7499 13.7389C16.9799 13.7389 17.2099 13.7389 17.4399 13.7389H17.4799C17.5499 13.7389 17.6299 13.7389 17.6999 13.7389C18.2199 13.7389 18.7299 13.7389 19.2499 13.7389H19.6699C20.0299 13.7389 20.3899 13.7389 20.7499 13.7389H20.7999C21.1499 13.7389 21.4999 13.7389 21.8499 13.7389H21.8899C22.0199 13.7389 22.1599 13.7389 22.2899 13.7389C22.6399 13.7389 22.9799 13.7389 23.3299 13.7389H23.9799C24.0999 13.7389 24.2299 13.7389 24.3499 13.7389C24.9966 13.7389 25.4499 13.7523 25.7099 13.7789C25.7099 13.7789 25.7299 13.7789 25.7499 13.7789C25.9899 13.8089 26.2199 13.8589 26.4499 13.9089C26.4699 13.9089 26.4799 13.9089 26.4999 13.9189C26.9599 14.0189 27.4099 14.1989 27.8299 14.4189C27.8399 14.4189 27.8599 14.4289 27.8699 14.4389C27.9399 14.4789 28.0199 14.5189 28.0899 14.5589C28.1199 14.5789 28.1599 14.5989 28.1899 14.6089C28.5299 14.7889 28.8299 15.0089 29.1299 15.2589C29.1299 15.2589 29.1466 15.2723 29.1799 15.2989C29.1799 15.2989 29.2699 15.3789 29.3099 15.4089C29.3299 15.4189 29.3499 15.4389 29.3599 15.4589C29.5099 15.5889 29.6599 15.7389 29.7999 15.8789C29.7999 15.8789 29.8099 15.8889 29.8299 15.9089C29.9599 16.0389 30.0699 16.1789 30.1899 16.3289C30.2099 16.3489 30.2299 16.3789 30.2499 16.3989C30.5099 16.7189 30.7199 17.0789 30.9199 17.4389C30.9199 17.4489 30.9399 17.4689 30.9399 17.4789C31.7899 19.0689 31.9199 20.9289 31.4499 22.8289C31.1899 23.7589 30.7199 24.6289 30.0999 25.3389C30.0699 25.3789 30.0299 25.4189 29.9999 25.4589C29.9299 25.5389 29.8599 25.6189 29.7899 25.6889C29.7799 25.6989 29.7699 25.7089 29.7599 25.7289C29.6799 25.8189 29.5899 25.8989 29.5099 25.9689C29.4999 25.9789 29.4899 25.9889 29.4699 25.9989C28.5499 26.8189 27.4299 27.3389 26.2499 27.5689C26.2499 27.5689 26.2333 27.5689 26.1999 27.5689C26.1999 27.5689 26.1699 27.5689 26.1599 27.5689C26.1499 27.5689 26.1399 27.5689 26.1199 27.5689C25.7299 27.6389 25.3399 27.6489 24.9499 27.6489C24.8699 27.6489 24.7999 27.6489 24.7199 27.6489C24.5899 27.6489 24.4599 27.6489 24.3199 27.6489C24.1299 27.6489 23.9399 27.6489 23.7499 27.6489C23.4399 27.6489 23.1299 27.6489 22.8199 27.6489H22.7599C22.6099 27.6489 22.4599 27.6489 22.3099 27.6489C22.1799 27.6489 22.0499 27.6489 21.9099 27.6489H21.8499C21.5399 27.6489 21.2299 27.6489 20.9199 27.6489C20.7299 27.6489 20.5399 27.6489 20.3499 27.6489C20.2199 27.6489 20.0899 27.6489 19.9599 27.6489C19.8799 27.6489 19.8099 27.6489 19.7299 27.6489C19.6599 27.6489 19.5899 27.6489 19.5199 27.6489C19.4799 27.6489 19.4499 27.6489 19.4099 27.6489C19.1899 27.6489 19.0099 27.6689 18.8299 27.8089C18.8199 27.8089 18.8099 27.8289 18.7999 27.8289C18.6699 27.9289 18.6099 28.0789 18.5699 28.2389C18.5699 28.2989 18.5699 28.3589 18.5699 28.4089C18.5699 28.4289 18.5699 28.4389 18.5699 28.4589C18.5699 28.5189 18.5699 28.5689 18.5699 28.6289C18.5699 28.6689 18.5699 28.7089 18.5699 28.7489C18.5699 28.8389 18.5699 28.9189 18.5699 29.0089C18.5699 29.1489 18.5699 29.2789 18.5699 29.4189C18.5699 29.6789 18.5699 29.9489 18.5699 30.2089C18.5699 30.5389 18.5699 30.8789 18.5699 31.2089C18.5699 31.3389 18.5699 31.4789 18.5699 31.6089C18.5699 31.6889 18.5699 31.7789 18.5699 31.8589C18.5699 31.8989 18.5699 31.9389 18.5699 31.9789C18.5699 32.3189 18.5599 32.6689 18.4699 33.0089C18.4699 33.0089 18.4699 33.0223 18.4699 33.0489C18.3799 33.4089 18.2099 33.7589 17.9799 34.0489C17.9699 34.0689 17.9499 34.0789 17.9399 34.0989C17.8999 34.1489 17.8599 34.1989 17.8099 34.2489C17.7899 34.2689 17.7799 34.2789 17.7599 34.2989C17.3599 34.7289 16.8399 34.9989 16.2799 35.1089C16.2599 35.1089 16.2399 35.1089 16.2199 35.1189C15.8899 35.1789 15.5599 35.1589 15.2399 35.0889C15.2199 35.0889 15.1899 35.0789 15.1699 35.0689C14.6999 34.9489 14.2899 34.6889 13.9399 34.3389C13.9399 34.3389 13.9233 34.3223 13.8899 34.2889C13.3799 33.7789 13.0699 33.0089 13.0499 32.2689C13.0499 32.1489 13.0499 32.0389 13.0499 31.9189C13.0499 31.8789 13.0499 31.8289 13.0499 31.7889C13.0499 31.6889 13.0499 31.5989 13.0499 31.4989C13.0499 31.3489 13.0499 31.1989 13.0499 31.0489C13.0499 30.8389 13.0499 30.6289 13.0499 30.4089C13.0499 30.3989 13.0499 30.3789 13.0499 30.3689C13.0499 30.2189 13.0499 30.0689 13.0499 29.9189C13.0499 29.8689 13.0499 29.8089 13.0499 29.7589V29.7189C13.0499 29.4989 13.0499 29.2689 13.0499 29.0489C13.0499 28.8989 13.0499 28.7489 13.0499 28.5989C13.0499 28.5089 13.0499 28.4089 13.0499 28.3189C13.0499 28.2789 13.0499 28.2289 13.0499 28.1889C13.0499 27.9089 13.0399 27.6589 12.9399 27.3889C12.9399 27.3689 12.9199 27.3489 12.9199 27.3189C12.8899 27.2489 12.8699 27.1789 12.8399 27.0989C12.7599 26.8589 12.7999 26.5589 12.8899 26.3289C13.0299 26.0389 13.2399 25.8289 13.5299 25.7189C13.8099 25.6389 14.1099 25.6589 14.3699 25.8089C14.6499 25.9889 14.8299 26.2389 14.9099 26.5689C14.9099 26.6389 14.9099 26.6989 14.9099 26.7689C14.9099 26.7889 14.9099 26.8089 14.9099 26.8189C14.9099 26.9789 14.8699 27.1089 14.8199 27.2489C14.7899 27.3289 14.7699 27.4189 14.7499 27.4989C14.7499 27.5189 14.7499 27.5289 14.7399 27.5489C14.7399 27.5689 14.7399 27.5789 14.7299 27.5989C14.7299 27.6089 14.7299 27.6289 14.7199 27.6389C14.6899 27.7589 14.6899 27.8889 14.6899 28.0089C14.6899 28.0289 14.6899 28.0489 14.6899 28.0689C14.6899 28.1289 14.6899 28.1989 14.6899 28.2589C14.6899 28.3089 14.6899 28.3489 14.6899 28.3989C14.6899 28.5489 14.6899 28.6989 14.6899 28.8489C14.6899 28.8989 14.6899 28.9489 14.6899 28.9989C14.6899 29.2089 14.6899 29.4289 14.6899 29.6389C14.6899 29.6989 14.6899 29.7489 14.6899 29.8089V29.8489C14.6899 30.0689 14.6899 30.2889 14.6899 30.5189C14.6899 30.7489 14.6899 30.9789 14.6899 31.2089C14.6899 31.3389 14.6899 31.4689 14.6899 31.5889C14.6899 31.7089 14.6899 31.8289 14.6899 31.9489C14.6899 31.9889 14.6899 32.0389 14.6899 32.0789C14.6899 32.4789 14.7499 32.8189 15.0199 33.1189C15.2699 33.3689 15.5899 33.4789 15.9299 33.4689C16.0299 33.4689 16.1199 33.4389 16.2099 33.4089C16.2099 33.4089 16.2266 33.4023 16.2599 33.3889C16.5299 33.2889 16.7499 33.0589 16.8799 32.7989C16.9599 32.6289 17.0099 32.4289 17.0099 32.2489C17.0099 32.2289 17.0099 32.2089 17.0099 32.1889C17.0099 32.1889 17.0099 32.1656 17.0099 32.1189C17.0099 32.1189 17.0099 32.0689 17.0099 32.0489V31.8889C17.0099 31.7989 17.0099 31.7189 17.0099 31.6289C17.0099 31.5089 17.0099 31.3789 17.0099 31.2589C17.0099 31.0589 17.0099 30.8689 17.0099 30.6689C17.0099 30.5989 17.0099 30.5389 17.0099 30.4689V30.4189C17.0099 30.2289 17.0099 30.0389 17.0099 29.8389C17.0099 29.8189 17.0099 29.7989 17.0099 29.7889C17.0099 29.5089 17.0099 29.2189 17.0099 28.9389C17.0099 28.6489 17.0099 28.3589 17.0099 28.0589C17.0099 27.8789 17.0099 27.6989 17.0099 27.5189C17.0099 27.3989 17.0099 27.2689 17.0099 27.1489C17.0099 27.0789 17.0099 27.0089 17.0099 26.9389C17.0099 26.8589 17.0099 26.7889 17.0099 26.7089C17.0099 26.6889 17.0099 26.6689 17.0099 26.6389C17.0099 26.4489 17.0599 26.3089 17.1899 26.1689C17.3199 26.0489 17.4499 25.9889 17.6199 25.9889C17.6299 25.9889 17.6499 25.9889 17.6599 25.9889C17.7099 25.9889 17.7499 25.9889 17.7999 25.9889C17.8299 25.9889 17.8699 25.9889 17.8999 25.9889C17.9899 25.9889 18.0799 25.9889 18.1699 25.9889C18.2699 25.9889 18.3599 25.9889 18.4599 25.9889C18.6299 25.9889 18.7999 25.9889 18.9699 25.9889C19.2099 25.9889 19.4599 25.9889 19.6999 25.9889C20.0999 25.9889 20.4899 25.9889 20.8899 25.9889H20.9599C21.2999 25.9889 21.6299 25.9889 21.9699 25.9889H22.1099C22.4999 25.9889 22.8999 25.9889 23.2899 25.9889C23.5299 25.9889 23.7799 25.9889 24.0199 25.9889C24.1899 25.9889 24.3499 25.9889 24.5199 25.9889C24.6199 25.9889 24.7099 25.9889 24.8099 25.9889C26.0099 25.9889 27.1999 25.7289 28.1699 24.9389C28.1799 24.9389 28.1899 24.9189 28.1999 24.9089C28.5399 24.6389 28.8799 24.3189 29.1299 23.9589C29.1299 23.9489 29.1499 23.9389 29.1599 23.9189C29.4399 23.5289 29.6599 23.0989 29.8399 22.6489C29.8399 22.6289 29.8599 22.5989 29.8699 22.5789C30.0899 22.0089 30.1699 21.4089 30.1599 20.8089V20.7489C30.1599 20.4389 30.1499 20.1389 30.0999 19.8389C30.0999 19.8189 30.0999 19.8089 30.0999 19.7889C29.9399 18.8389 29.4999 17.9789 28.8999 17.2689C28.8899 17.2489 28.8699 17.2389 28.8599 17.2189C28.6899 17.0189 28.5099 16.8289 28.3099 16.6689C28.2899 16.6489 28.2699 16.6289 28.2499 16.6089C27.6199 16.0589 26.8399 15.6989 26.0499 15.5089C26.0499 15.5089 26.0366 15.5089 26.0099 15.5089C25.6099 15.4189 25.2099 15.3989 24.7999 15.3989C24.7599 15.3989 24.7199 15.3989 24.6699 15.3989C24.5499 15.3989 24.4399 15.3989 24.3199 15.3989C24.2099 15.3989 24.0999 15.3989 23.9799 15.3989C23.6799 15.3989 23.3799 15.3989 23.0799 15.3989C22.9399 15.3989 22.7999 15.3989 22.6499 15.3989C22.1599 15.3989 21.6699 15.3989 21.1899 15.3989H21.0499C20.9699 15.3989 20.8999 15.3989 20.8199 15.3989H20.7699C20.2799 15.3989 19.7799 15.3989 19.2899 15.3989C18.7699 15.3989 18.2399 15.3989 17.7199 15.3989H17.4999C17.2699 15.3989 17.0499 15.3989 16.8199 15.3989C16.5899 15.3989 16.3599 15.3989 16.1299 15.3989C16.0099 15.3989 15.8799 15.3989 15.7599 15.3989C15.6499 15.3989 15.5299 15.3989 15.4199 15.3989C15.3799 15.3989 15.3399 15.3989 15.2999 15.3989C14.9499 15.3989 14.6299 15.4489 14.2999 15.5789C14.2599 15.5989 14.2199 15.6089 14.1799 15.6289C14.1599 15.6289 14.1499 15.6389 14.1299 15.6489C13.8899 15.7389 13.6399 15.6789 13.4099 15.5789C13.1099 15.4189 12.9399 15.1589 12.8299 14.8389C12.7599 14.5589 12.8099 14.2589 12.9399 14.0089C13.0899 13.7589 13.2999 13.5589 13.5799 13.4789C13.8299 13.4389 14.0899 13.4489 14.3199 13.5489L14.2699 13.5789Z" fill="white"/>
<path d="M19.1809 17.6576C19.2509 17.6876 19.3109 17.7076 19.3809 17.7276C19.4009 17.7276 19.4209 17.7476 19.4509 17.7476C19.6209 17.7976 19.7809 17.8176 19.9609 17.8176C19.9609 17.8176 19.9842 17.8176 20.0309 17.8176C20.0909 17.8176 20.1509 17.8176 20.2109 17.8176C20.2809 17.8176 20.3409 17.8176 20.4109 17.8176C20.5209 17.8176 20.6409 17.8176 20.7509 17.8176C20.9209 17.8176 21.0809 17.8176 21.2509 17.8176C21.5209 17.8176 21.7909 17.8176 22.0609 17.8176H22.1109C22.3409 17.8176 22.5709 17.8176 22.8009 17.8176H22.9009C23.1709 17.8176 23.4409 17.8176 23.7109 17.8176C23.8809 17.8176 24.0409 17.8176 24.2109 17.8176C24.3209 17.8176 24.4409 17.8176 24.5509 17.8176C24.6209 17.8176 24.6809 17.8176 24.7509 17.8176C25.6709 17.8176 26.4109 18.0876 27.0809 18.7676C27.1409 18.8376 27.2009 18.9076 27.2609 18.9876C27.2609 18.9976 27.2809 19.0176 27.2909 19.0276C27.4909 19.3176 27.6409 19.6476 27.7309 19.9976C27.7309 20.0076 27.7309 20.0276 27.7409 20.0376C27.9209 20.7576 27.7909 21.5376 27.4509 22.1776C27.0809 22.8476 26.4709 23.3176 25.7609 23.5176C25.4809 23.5876 25.2209 23.6176 24.9309 23.6176C24.9009 23.6176 24.8709 23.6176 24.8409 23.6176C24.7609 23.6176 24.6709 23.6176 24.5909 23.6176C24.5009 23.6176 24.4109 23.6176 24.3209 23.6176C24.1409 23.6176 23.9709 23.6176 23.7909 23.6176C23.6509 23.6176 23.5009 23.6176 23.3609 23.6176C23.3609 23.6176 23.3409 23.6176 23.3009 23.6176H23.1809C22.7909 23.6176 22.4009 23.6176 22.0109 23.6176C21.6809 23.6176 21.3409 23.6176 21.0109 23.6176C20.6209 23.6176 20.2309 23.6176 19.8409 23.6176C19.8009 23.6176 19.7609 23.6176 19.7209 23.6176H19.6609C19.5209 23.6176 19.3709 23.6176 19.2309 23.6176C19.0609 23.6176 18.8809 23.6176 18.7109 23.6176H18.4409C18.3609 23.6176 18.2809 23.6176 18.1909 23.6176C18.1609 23.6176 18.1309 23.6176 18.1009 23.6176C17.5609 23.6176 17.1609 23.3876 16.7009 23.1276C16.5509 23.0476 16.4009 22.9576 16.2509 22.8776C16.0709 22.7776 15.9009 22.6876 15.7209 22.5876C15.5609 22.4976 15.4109 22.4176 15.2509 22.3276C15.1409 22.2676 15.0309 22.2076 14.9309 22.1476C14.5909 21.9576 14.2809 21.8276 13.9009 21.8176C13.6009 21.8076 13.3409 21.7276 13.1209 21.4976C12.9009 21.2276 12.8009 20.9276 12.8209 20.5776C12.8509 20.2676 13.0109 20.0076 13.2309 19.8076C13.4809 19.6176 13.7709 19.5576 14.0709 19.5976C14.3309 19.6576 14.5609 19.8076 14.7309 20.0176C14.8509 20.1676 15.0109 20.2676 15.1709 20.3576C15.1709 20.3576 15.1842 20.3676 15.2109 20.3876C15.3709 20.4876 15.5409 20.5676 15.7109 20.6576C15.7709 20.6876 15.8309 20.7276 15.8909 20.7576C15.9009 20.7576 15.9209 20.7776 15.9409 20.7776C16.0809 20.8476 16.2109 20.9276 16.3509 20.9976C16.4609 21.0576 16.5809 21.1276 16.6909 21.1876C16.7409 21.2076 16.7809 21.2376 16.8309 21.2676C16.8409 21.2676 16.8509 21.2776 16.8709 21.2876C16.9709 21.3476 17.0709 21.3976 17.1809 21.4576C17.2609 21.4976 17.3409 21.5476 17.4309 21.5876C17.4809 21.6176 17.5209 21.6376 17.5709 21.6676C17.6909 21.7376 17.8109 21.7876 17.9409 21.8276C17.9509 21.8276 17.9609 21.8276 17.9809 21.8376C18.2009 21.8976 18.4209 21.9076 18.6509 21.9076C18.6809 21.9076 18.7109 21.9076 18.7309 21.9076C18.8109 21.9076 18.8809 21.9076 18.9609 21.9076C19.0409 21.9076 19.1309 21.9076 19.2109 21.9076C19.3709 21.9076 19.5409 21.9076 19.7009 21.9076C19.8309 21.9076 19.9609 21.9076 20.1009 21.9076C20.4809 21.9076 20.8509 21.9076 21.2309 21.9076H21.3509C21.6809 21.9076 22.0109 21.9076 22.3309 21.9076C22.6709 21.9076 23.0009 21.9076 23.3409 21.9076C23.5309 21.9076 23.7209 21.9076 23.9109 21.9076C24.0709 21.9076 24.2309 21.9076 24.3909 21.9076C24.4709 21.9076 24.5509 21.9076 24.6409 21.9076C24.7209 21.9076 24.7909 21.9076 24.8709 21.9076C24.9009 21.9076 24.9209 21.9076 24.9509 21.9076C25.3109 21.9076 25.6509 21.8176 25.9109 21.5476C26.0609 21.3876 26.1409 21.2076 26.2109 20.9976C26.2109 20.9876 26.2109 20.9676 26.2209 20.9576C26.2909 20.6876 26.2509 20.3976 26.1309 20.1476C25.9609 19.8376 25.7009 19.6176 25.3709 19.5176C25.2309 19.4776 25.0909 19.4676 24.9509 19.4676C24.9309 19.4676 24.9109 19.4676 24.8809 19.4676C24.8209 19.4676 24.7609 19.4676 24.7009 19.4676C24.6309 19.4676 24.5709 19.4676 24.5009 19.4676C24.3709 19.4676 24.2409 19.4676 24.1209 19.4676C24.0209 19.4676 23.9109 19.4676 23.8109 19.4676C23.8009 19.4676 23.7809 19.4676 23.7709 19.4676H23.6809C23.4009 19.4676 23.1109 19.4676 22.8309 19.4676C22.5909 19.4676 22.3409 19.4676 22.1009 19.4676C21.8209 19.4676 21.5409 19.4676 21.2509 19.4676C21.2209 19.4676 21.1909 19.4676 21.1609 19.4676H21.1209C21.0209 19.4676 20.9109 19.4676 20.8109 19.4676C20.6809 19.4676 20.5609 19.4676 20.4309 19.4676C20.3709 19.4676 20.3009 19.4676 20.2409 19.4676C19.9342 19.4676 19.6309 19.5076 19.3309 19.5876C19.3309 19.5876 19.3109 19.5876 19.2909 19.5976C19.2309 19.6176 19.1809 19.6476 19.1209 19.6776C18.9109 19.7676 18.6209 19.7476 18.4109 19.6776C18.1409 19.5476 17.9509 19.3676 17.8209 19.0876C17.8209 19.0676 17.8009 19.0576 17.8009 19.0376C17.7109 18.8076 17.7109 18.4776 17.7909 18.2376C17.8109 18.1976 17.8309 18.1676 17.8409 18.1276C17.8409 18.1076 17.8609 18.0876 17.8709 18.0676C18.0209 17.7976 18.2609 17.6176 18.5509 17.5276C18.8109 17.4776 19.0209 17.5276 19.2609 17.6176L19.1809 17.6576Z" fill="white"/>
<defs>
<linearGradient id="paint0_linear_3174_6222" x1="-0.970703" y1="24.4714" x2="41.1093" y2="24.4714" gradientUnits="userSpaceOnUse">
<stop stop-color="#3E3E3D"/>
<stop offset="0.46" stop-color="#3E4347"/>
<stop offset="1" stop-color="#3E454B"/>
</linearGradient>
<radialGradient id="paint1_radial_3174_6222" cx="0" cy="0" r="1" gradientUnits="userSpaceOnUse" gradientTransform="translate(20.0802 24.4786) scale(17.92 17.92)">
<stop stop-color="#2493D1"/>
<stop offset="0.32" stop-color="#1B6187"/>
<stop offset="0.65" stop-color="#123345"/>
<stop offset="0.88" stop-color="#0D171C"/>
<stop offset="1" stop-color="#0C0D0D"/>
</radialGradient>
</defs>
</svg>
